<svg width="48" height="48" viewBox="0 0 48 48" fill="none" xmlns="http://www.w3.org/2000/svg">
<circle cx="24" cy="24" r="24" fill="#1E222E"/>
<path fill-rule="evenodd" clip-rule="evenodd" d="M33.52 30.947C33.17 32.025 32.996 32.564 32.537 33.053C32.302 33.303 31.938 33.568 31.627 33.714C31.02 34 30.357 34 29.033 34H16.2C15.545 34 15.218 34 14.977 33.853C14.8425 33.7705 14.7294 33.6575 14.647 33.523C14.5 33.283 14.5 32.955 14.5 32.3V23.054C14.5 22.399 14.5 22.072 14.647 21.831C14.7294 21.6965 14.8425 21.5834 14.977 21.501C15.218 21.354 15.545 21.354 16.2 21.354H18.5C21.537 21.354 22.268 16.827 22.444 14.647C22.507 13.863 22.741 13.322 23.626 13.282C24.481 13.244 25.651 13.476 26.5 14.75C27.848 16.772 27.52 18.407 27.042 20.793C27.013 20.935 27.059 21 27.207 21H29.521C31.429 21 32.383 21 33.118 21.465C33.5239 21.7304 33.8641 22.0847 34.113 22.501C34.547 23.254 34.513 24.1 34.443 25.791C34.3812 27.5447 34.0704 29.2807 33.52 30.947ZM25.956 17.677C25.977 18.433 25.818 19.267 25.57 20.504C25.515 20.7467 25.5161 20.9987 25.5732 21.2409C25.6304 21.4831 25.742 21.709 25.8997 21.9015C26.0574 22.094 26.2569 22.248 26.4831 22.3517C26.7093 22.4554 26.9562 22.5061 27.205 22.5C27.977 22.494 28.749 22.5 29.521 22.5C30.506 22.5 31.131 22.502 31.607 22.55C32.051 22.596 32.218 22.67 32.316 22.732C32.495 22.846 32.707 23.067 32.813 23.251C32.981 23.542 33.02 23.868 32.944 25.731C32.8881 27.348 32.6019 28.9488 32.094 30.485C31.715 31.651 31.628 31.83 31.444 32.026C31.31 32.1592 31.1562 32.2708 30.988 32.357C30.753 32.467 30.488 32.5 29.033 32.5C25.689 32.5 22.344 32.508 19 32.505V22.827C21.135 22.591 22.318 20.863 22.93 19.394C23.603 17.777 23.845 15.922 23.938 14.784C25.302 14.874 25.923 16.491 25.956 17.677ZM18 22.853V32.504C17.333 32.504 16.667 32.502 16 32.5C15.99 29.285 15.99 26.069 16 22.854C16.667 22.852 17.333 22.853 18 22.854V22.853Z" fill="white"/>
</svg>
