<svg xmlns="http://www.w3.org/2000/svg">
  <symbol xmlns="http://www.w3.org/2000/svg" fill="none" viewBox="0 0 188 40" id="logo-gazprombank">
    <g clip-path="url(#clip0_5030_1450)">
    <path fill-rule="evenodd" clip-rule="evenodd" d="M0.689762 20C0.689762 9.36005 9.28526 0.685197 19.8439 0.685197C30.4159 0.685197 39.0114 9.34712 39.0114 20C39.0114 30.6529 30.4159 39.3148 19.8439 39.3148C9.28526 39.3148 0.689762 30.6529 0.689762 20ZM0 20C0 31.0278 8.90059 40 19.8439 40C30.7873 40 39.6879 31.0278 39.6879 20C39.7011 8.9722 30.7873 0 19.8439 0C8.90059 0 0 8.9722 0 20Z" fill="currentColor"/>
    <path fill-rule="evenodd" clip-rule="evenodd" d="M32.4722 17.9701C32.3263 18.0994 32.1671 18.2286 31.9814 18.3579C30.8804 19.2112 29.156 19.8835 26.7551 20.5299C21.7676 21.8744 18.1596 22.0813 14.0343 23.0897C13.2384 23.2836 12.4027 23.5551 11.6201 23.8783C12.4027 24.2661 13.2251 24.6281 14.0741 24.9513C15.7454 24.473 16.5413 24.2532 18.9687 23.8395C19.884 23.6844 22.7226 23.1802 24.7919 22.7406C28.4928 21.952 33.918 20.2325 32.4722 17.9701ZM30.0845 13.2771C29.3019 12.9151 28.3071 12.5661 27.2592 12.2817C26.7949 12.6566 26.2378 12.9927 25.4684 13.2901C26.7684 13.5228 27.7632 13.8848 28.8509 14.208C29.0631 14.3114 29.9519 13.4711 30.0845 13.2771ZM11.9385 18.2674C16.7801 16.8324 21.8604 16.3928 27.0071 15.0095C24.9909 14.4665 23.8899 14.2338 21.7676 14.4795C18.6769 14.8414 15.2812 15.5266 12.3762 16.3928C11.2354 16.729 5.23982 18.4484 6.96423 20.8402C6.96423 20.8789 7.99887 19.431 11.9385 18.2674ZM8.59578 26.5027C8.58252 26.9552 8.86107 27.3431 9.44472 27.8343C9.52431 27.5887 9.63042 27.4206 9.80286 27.1879C9.39166 26.9681 8.98046 26.7354 8.59578 26.5027ZM10.864 26.27C11.2222 26.0502 11.6599 25.8305 12.164 25.6365C11.4742 25.3521 10.7712 25.0418 10.0549 24.7057C9.72328 24.9126 9.44472 25.1194 9.20596 25.3521C9.76307 25.6624 10.3069 25.9727 10.864 26.27ZM29.4744 15.9016C28.4928 16.3541 27.1 16.8324 25.0838 17.3366C23.4389 17.7503 19.433 18.3321 15.122 19.2758C13.7557 19.5732 10.0682 20.4523 8.2509 22.0037C8.75496 22.4174 9.07331 22.5208 9.63042 22.8311C10.3865 22.3528 11.3946 21.8873 12.9201 21.4736C15.5597 20.7626 17.5362 20.4523 19.9105 20.0774C22.2716 19.7025 26.702 18.7587 29.1693 17.8796C29.9651 17.5822 30.708 17.2202 31.2651 16.7807C31.1059 16.5997 29.5274 15.8369 29.4744 15.9016ZM30.9069 15.0224C31.3845 15.2681 31.8222 15.4361 32.2467 15.7335C32.5518 15.1517 32.366 14.7768 31.7293 14.2338C31.4906 14.5312 31.1988 14.7897 30.9069 15.0224ZM8.35702 23.8395C7.93255 23.5939 7.62746 23.4258 7.26931 23.1672C7.07034 23.5939 7.44176 24.0722 7.82643 24.292C7.99887 24.1239 8.18458 23.9817 8.35702 23.8395ZM28.9703 10.3553C28.8774 10.6915 28.5326 11.0664 28.2805 11.3379C29.0101 11.5318 29.7396 11.8033 30.4427 12.0619C30.3631 11.4155 29.607 10.782 28.9703 10.3553ZM6.18161 14.5182C11.2487 11.1698 16.8597 9.21766 26.3704 10.8725C26.901 10.5622 27.1928 10.2778 27.3255 9.64429C24.9511 8.7781 22.3778 8.48075 19.0483 8.53246C16.0505 8.61003 10.6651 9.73479 7.7999 11.4542L8.67537 10.3553C10.6916 9.16595 15.9311 7.5887 19.8575 7.51113C22.6298 7.45942 24.0624 7.61456 27.352 8.5066C27.0735 7.93776 26.3837 7.65334 25.3888 7.20085C22.2053 5.75289 16.2495 5.62361 11.3681 7.78262C11.9915 7.38185 12.5884 6.994 13.3843 6.63201C14.9893 5.8951 17.629 5.17112 20.9186 5.22283C23.5451 5.26161 26.6755 6.19245 28.5856 8.10583C28.904 8.48075 29.0897 8.88152 29.1693 9.20473C30.6814 9.98042 31.5569 10.7044 32.061 11.5577C32.2599 11.9843 32.3528 12.4756 32.2599 13.0056C32.8834 13.3935 33.1885 13.7038 33.4935 14.1175C33.719 14.4665 33.8915 14.8673 33.9313 15.2293C33.9843 15.7076 34.0374 16.2506 33.5466 16.8712C34.0772 17.1297 34.4751 17.8537 34.5415 18.1769C34.7802 19.3275 34.0507 20.4394 33.0691 21.3185C31.9548 22.301 29.5009 23.4646 27.4979 23.9817C23.5185 24.9901 20.0167 25.4168 17.2178 25.9339C18.4647 26.2312 20.1626 26.6449 22.9481 26.6449C28.8774 26.6449 34.117 23.8137 34.117 23.8137C34.117 23.8137 33.9976 24.1886 33.8782 24.5118C30.1111 26.813 24.1154 27.7826 21.5686 27.6663C18.9687 27.5499 16.7801 27.1621 14.6445 26.4898C13.9812 26.6708 13.3445 26.8776 12.7211 27.1491C15.9842 28.6359 18.4382 28.972 21.2237 29.1789C24.0624 29.3857 28.7581 28.7005 32.7375 27.2526C32.5518 27.4336 32.4589 27.718 32.2732 27.899C30.2437 28.972 25.946 30.058 23.7838 30.1356C21.6349 30.2261 19.0218 30.1485 16.7403 29.7089C14.7771 29.334 13.1854 28.7005 11.5007 27.9636C11.1957 28.1834 11.0365 28.4808 10.9834 28.804C17.5096 32.2429 23.6379 32.3204 30.6018 30.1356L29.9651 30.7561C22.2982 33.8848 16.3025 32.6695 11.6732 30.42C11.5273 30.3553 11.3416 30.2778 11.2089 30.1873C11.6334 30.9371 15.1751 33.5486 19.1412 33.8718C21.8737 34.0916 25.2031 33.6262 27.1796 32.8246L26.0255 33.4323C25.0705 33.9106 22.5369 34.9837 18.982 34.7509C14.2598 34.4277 11.5936 32.3204 10.3998 31.2215C9.84266 30.7044 9.59063 30.1097 9.41819 29.3728C8.34375 28.804 7.68052 28.2222 7.1234 27.356C6.79179 26.8389 6.85811 26.27 6.9377 25.7787C6.96423 25.6236 7.00402 25.4814 7.05708 25.3392C6.53976 24.9643 6.02244 24.5635 5.79694 24.1627C5.33267 23.3095 5.61123 22.5855 5.94285 22.0166C5.66429 21.6934 5.399 21.3702 5.27962 21.047C5.16023 20.685 5.1337 20.3101 5.1735 19.8964C5.26635 19.1853 5.63776 18.526 6.12855 17.9572C7.1632 16.7548 8.78149 15.824 11.5671 14.8932C14.2863 13.9882 15.3873 13.846 17.4433 13.3676C19.8442 12.8117 22.7094 12.6307 25.1103 11.7904C18.4116 10.6139 11.4609 11.687 5.79694 15.6171L6.18161 14.5182Z" fill="currentColor"/>
    <path d="M64.6919 16.5225L65.448 21.8619H63.9226L64.6919 16.5225ZM58.6963 28.7397H62.7951L63.2859 25.7145H66.098L66.5888 28.7397H70.6743L67.2255 11.2349H62.1584L58.6963 28.7397Z" fill="currentColor"/>
    <path d="M74.5471 18.009C75.197 18.009 76.4041 17.5824 76.4041 16.2895C76.4041 14.764 75.0113 14.6735 74.6266 14.6735C74.1624 14.6735 73.2869 14.7381 72.4114 15.1648L72.3584 11.3768C73.7246 11.0148 74.7195 10.9243 75.8735 10.9243C79.1632 10.9243 80.6488 13.2514 80.6488 15.5138C80.6488 17.7246 79.3754 19.0691 78.155 19.5862V19.7543C79.3223 20.1292 80.9141 21.2798 80.9141 23.956C80.9141 27.2527 78.6193 29.0756 75.7011 29.0756C74.1359 29.0756 73.1145 28.8429 71.8809 28.1706L71.9472 24.5378C73.0747 25.029 73.844 25.0678 74.6266 25.0678C75.9133 25.0678 76.4439 24.1111 76.4439 23.4001C76.4439 22.4175 75.8205 21.7582 74.4542 21.7582H72.8227V18.009H74.5471Z" fill="currentColor"/>
    <path d="M82.8115 11.2349H93.8079V28.7397H89.7755V15.4365H86.844V28.7397H82.8115V11.2349Z" fill="currentColor"/>
    <path d="M100.148 15.087H101.103C102.018 15.087 102.588 15.6429 102.588 17.0909C102.588 18.9914 101.62 19.1206 101.103 19.1206H100.148V15.087ZM96.1152 28.7393H100.148V22.9603H101.501C105.493 22.9603 106.727 19.3533 106.727 17.0521C106.727 14.7897 105.321 11.2215 101.501 11.2344H96.1152V28.7393Z" fill="currentColor"/>
    <path d="M114.183 24.7188C112.763 24.7188 112.034 23.0511 112.034 19.9612C112.034 16.8714 112.763 15.2036 114.183 15.2036C115.602 15.2036 116.345 16.8714 116.345 19.9612C116.345 23.0511 115.602 24.7188 114.183 24.7188ZM114.183 28.9463C118.958 28.9463 120.576 24.4602 120.576 19.9612C120.576 15.4751 118.958 10.9761 114.183 10.9761C109.407 10.9761 107.789 15.4751 107.789 19.9612C107.802 24.4602 109.407 28.9463 114.183 28.9463Z" fill="currentColor"/>
    <path d="M142.077 25.2362V21.2543H142.661C143.138 21.2543 144.412 21.2801 144.412 23.0771C144.412 24.9259 143.138 25.2362 142.661 25.2362H142.077ZM138.138 28.7397H142.953C143.987 28.7397 148.351 28.3002 148.365 22.9996C148.365 18.5264 144.982 17.7507 142.807 17.7507H142.091V15.4365H147.423V11.2349H138.138V28.7397Z" fill="currentColor"/>
    <path d="M162.864 11.2349H166.817V17.5309H169.629V11.2349H173.582V28.7397H169.629V21.7326H166.817V28.7397H162.864V11.2349Z" fill="currentColor"/>
    <path d="M176.221 11.2349H180.174L180.16 17.5309H181.023L183.277 11.2349H187.575L184.498 19.5348L188 28.7397H183.357L181.102 21.6938H180.16L180.174 28.7397H176.221V11.2349Z" fill="currentColor"/>
    <path d="M50.8965 11.2349H59.1604V15.5917H54.9953V28.7397H50.8965V11.2349Z" fill="currentColor"/>
    <path d="M122.512 11.2349H125.934L128.958 15.359L131.996 11.2349H135.418V28.7397H131.386V18.061L128.958 21.125L126.544 18.061V28.7397H122.512V11.2349Z" fill="currentColor"/>
    <path d="M155.144 16.5479L155.9 21.8873H154.375L155.144 16.5479ZM149.148 28.7651H153.234L153.725 25.7399H156.537L157.028 28.7651H161.113L157.651 11.2603H152.584L149.148 28.7651Z" fill="currentColor"/>
    </g>
    <defs>
    <clipPath id="clip0_5030_1450">
    <rect width="188" height="40" fill="white"/>
    </clipPath>
    </defs>
  </symbol>
  <symbol xmlns="http://www.w3.org/2000/svg" fill="none" viewBox="0 0 14 14" id="icon-whatsapp">
    <g clip-path="url(#icon-whatsapp-clip)">
      <path fill="#1E222E" d="M7.002 0h-.004C3.138 0 0 3.14 0 7c0 1.531.493 2.95 1.333 4.103l-.873 2.6 2.69-.86A6.94 6.94 0 0 0 7.003 14C10.862 14 14 10.86 14 7s-3.139-7-6.998-7Z"></path>
      <path fill="#E3E5EB" d="M11.075 9.885c-.169.477-.84.872-1.374.988-.366.078-.843.14-2.452-.527-2.057-.852-3.381-2.943-3.485-3.078-.099-.136-.83-1.107-.83-2.112 0-1.004.51-1.493.715-1.703.169-.173.448-.251.716-.251.086 0 .164.004.234.008.206.008.309.02.445.345.168.407.58 1.412.629 1.515.05.103.1.243.03.379-.066.14-.124.202-.227.32-.103.12-.201.21-.305.339-.094.11-.2.23-.082.435.12.202.53.873 1.136 1.412.781.695 1.415.918 1.641 1.012.17.07.37.053.494-.078.156-.169.35-.449.547-.724.14-.198.316-.223.502-.153.189.066 1.19.56 1.395.663.205.103.341.152.39.239.05.086.05.493-.119.97Z"></path>
    </g>
    <defs>
      <clipPath id="icon-whatsapp-clip">
        <path fill="#fff" d="M0 0h14v14H0z"></path>
      </clipPath>
    </defs>
  </symbol>
  <symbol xmlns="http://www.w3.org/2000/svg" fill="none" viewBox="0 0 16 16" id="icon-yt">
    <path fill-rule="evenodd" clip-rule="evenodd" d="M6.63601 10.013V6.04801L10.121 8.03001L6.63601 10.013ZM14.388 4.80001C14.3125 4.51624 14.1638 4.25729 13.9567 4.04913C13.7496 3.84098 13.4914 3.69092 13.208 3.61401C12.169 3.33301 8.00001 3.33301 8.00001 3.33301C8.00001 3.33301 3.83001 3.33301 2.79001 3.61301C2.50673 3.69025 2.24872 3.84056 2.04181 4.04888C1.83489 4.25719 1.68633 4.51622 1.61101 4.80001C1.33301 5.84701 1.33301 8.03001 1.33301 8.03001C1.33301 8.03001 1.33301 10.214 1.61101 11.26C1.68633 11.5438 1.83489 11.8028 2.04181 12.0111C2.24872 12.2195 2.50673 12.3698 2.79001 12.447C3.83001 12.727 8.00001 12.727 8.00001 12.727C8.00001 12.727 12.169 12.727 13.209 12.447C13.4923 12.3699 13.7504 12.2196 13.9573 12.0112C14.1642 11.8029 14.3128 11.5438 14.388 11.26C14.666 10.214 14.666 8.03001 14.666 8.03001C14.666 8.03001 14.666 5.84701 14.388 4.80001Z" fill="currentColor"/>
  </symbol>
  <symbol xmlns="http://www.w3.org/2000/svg" fill="none" viewBox="0 0 16 16" id="icon-ok">
    <path d="M8.82588 6.12971C8.82607 6.29336 8.77771 6.45339 8.68692 6.58954C8.59612 6.7257 8.46697 6.83185 8.31582 6.89457C8.16466 6.95729 7.9983 6.97375 7.83778 6.94187C7.67727 6.90999 7.52982 6.83121 7.4141 6.71549C7.29838 6.59977 7.2196 6.45232 7.18772 6.29181C7.15584 6.13129 7.1723 5.96493 7.23502 5.81377C7.29774 5.66262 7.40389 5.53347 7.54004 5.44267C7.67619 5.35187 7.83622 5.30351 7.99987 5.30371C8.45487 5.30371 8.82588 5.67471 8.82588 6.12971Z" fill="currentColor"/>
    <path fill-rule="evenodd" clip-rule="evenodd" d="M1.33301 8.00048C1.33301 7.12503 1.50544 6.25814 1.84046 5.44933C2.17549 4.64051 2.66654 3.9056 3.28558 3.28656C3.90462 2.66752 4.63953 2.17646 5.44835 1.84144C6.25717 1.50642 7.12405 1.33398 7.99951 1.33398C8.87497 1.33398 9.74185 1.50642 10.5507 1.84144C11.3595 2.17646 12.0944 2.66752 12.7134 3.28656C13.3325 3.9056 13.8235 4.64051 14.1586 5.44933C14.4936 6.25814 14.666 7.12503 14.666 8.00048C14.666 9.76855 13.9636 11.4642 12.7134 12.7144C11.4632 13.9646 9.76757 14.667 7.99951 14.667C6.23144 14.667 4.53579 13.9646 3.28558 12.7144C2.03537 11.4642 1.33301 9.76855 1.33301 8.00048ZM9.92301 11.6955C9.9774 11.6412 10.0206 11.5768 10.05 11.5058C10.0794 11.4349 10.0946 11.3588 10.0946 11.282C10.0946 11.2052 10.0794 11.1291 10.05 11.0581C10.0206 10.9872 9.9774 10.9227 9.92301 10.8685L8.80701 9.75248C9.21769 9.65912 9.60957 9.49682 9.96601 9.27248C10.0936 9.1882 10.1831 9.05731 10.2154 8.90785C10.2476 8.75838 10.2201 8.60222 10.1387 8.47281C10.0572 8.34339 9.92835 8.25101 9.77964 8.21543C9.63093 8.17986 9.4742 8.20393 9.34301 8.28248C8.94017 8.53439 8.47462 8.66796 7.99951 8.66796C7.52439 8.66796 7.05885 8.53439 6.65601 8.28248C6.591 8.24158 6.51858 8.21388 6.44287 8.20096C6.36716 8.18804 6.28964 8.19016 6.21475 8.2072C6.13986 8.22424 6.06906 8.25587 6.00639 8.30027C5.94372 8.34467 5.89042 8.40098 5.84951 8.46598C5.8086 8.53099 5.7809 8.60341 5.76798 8.67912C5.75506 8.75483 5.75719 8.83235 5.77423 8.90724C5.79127 8.98213 5.82289 9.05293 5.86729 9.1156C5.91169 9.17827 5.968 9.23158 6.03301 9.27248C6.39401 9.49949 6.78601 9.66048 7.19201 9.75248L6.07601 10.8685C6.02171 10.9229 5.97864 10.9874 5.94928 11.0584C5.91992 11.1294 5.90483 11.2055 5.90488 11.2823C5.90492 11.3592 5.9201 11.4353 5.94955 11.5062C5.979 11.5772 6.02214 11.6417 6.07651 11.696C6.13088 11.7503 6.19541 11.7933 6.26641 11.8227C6.33742 11.8521 6.41352 11.8672 6.49036 11.8671C6.5672 11.8671 6.64328 11.8519 6.71425 11.8224C6.78523 11.793 6.84971 11.7499 6.90401 11.6955L7.99901 10.5985L9.09701 11.6955C9.15117 11.7498 9.21554 11.793 9.28641 11.8224C9.35728 11.8518 9.43327 11.867 9.51001 11.867C9.58675 11.867 9.66273 11.8518 9.73361 11.8224C9.80448 11.793 9.86884 11.7498 9.92301 11.6955ZM8.00001 4.13548C9.10001 4.13548 9.99501 5.02948 9.99501 6.13048C9.99501 7.23048 9.10001 8.12548 8.00001 8.12548C6.90001 8.12548 6.00401 7.23048 6.00401 6.13048C6.00401 5.03048 6.89901 4.13448 8.00001 4.13448V4.13548Z" fill="currentColor"/>
  </symbol>
  <symbol xmlns="http://www.w3.org/2000/svg" fill="none" viewBox="0 0 16 16" id="icon-vk">
    <path fill-rule="evenodd" clip-rule="evenodd" d="M11.9336 10.7316H11.0036C10.6506 10.7316 10.5426 10.4436 9.91061 9.81161C9.35861 9.27761 9.11461 9.20561 8.97961 9.20561C8.78961 9.20561 8.73561 9.25061 8.73561 9.52261V10.3626C8.73561 10.5876 8.66361 10.7226 8.06661 10.7226C7.08261 10.7226 5.98961 10.1266 5.22161 9.01661C4.06561 7.38961 3.74961 6.16161 3.74961 5.91661C3.74961 5.78261 3.79461 5.65561 4.06561 5.65561H5.00561C5.23961 5.65561 5.33061 5.75561 5.42061 6.01661C5.88061 7.34461 6.64861 8.50961 6.96461 8.50961C7.08261 8.50961 7.13661 8.45661 7.13661 8.15761V6.78461C7.10061 6.15261 6.76661 6.09761 6.76661 5.87261C6.76661 5.76361 6.85661 5.65561 7.00061 5.65561H8.46461C8.66461 5.65561 8.73561 5.76361 8.73561 5.99861V7.85061C8.73561 8.04961 8.81761 8.12161 8.88061 8.12161C8.99761 8.12161 9.09661 8.04961 9.31361 7.83261C9.98261 7.08261 10.4616 5.92661 10.4616 5.92661C10.493 5.84576 10.5492 5.77693 10.6221 5.73004C10.6951 5.68314 10.781 5.66058 10.8676 5.66561H11.7976C12.0776 5.66561 12.1416 5.80861 12.0776 6.00861C11.9606 6.55061 10.8216 8.15761 10.8316 8.15761C10.7316 8.32061 10.6956 8.39261 10.8316 8.57361C10.9306 8.70961 11.2556 8.98861 11.4716 9.24161C11.8696 9.69361 12.1766 10.0726 12.2586 10.3346C12.3306 10.5966 12.2036 10.7316 11.9336 10.7316ZM9.96361 1.59961H6.03561C2.44961 1.59961 1.59961 2.44961 1.59961 6.03561V9.96561C1.59961 13.5506 2.44861 14.3996 6.03461 14.3996H9.96461C13.5496 14.3996 14.3996 13.5506 14.3996 9.96461V6.03461C14.3996 2.44861 13.5496 1.59961 9.96461 1.59961H9.96361Z" fill="currentColor"/>
  </symbol>
  <symbol xmlns="http://www.w3.org/2000/svg" fill="none" viewBox="0 0 15 12" id="icon-telegram">
    <mask id="icon-telegram-mask" width="15" height="12" x="0" y="0" maskUnits="userSpaceOnUse">
      <path fill="#fff" fill-rule="evenodd" d="M.5.167h14v11.666H.5V.167Z" clip-rule="evenodd"></path>
    </mask>
    <g mask="url(#icon-telegram-mask)">
      <path fill="#1E222E" fill-rule="evenodd" d="M14.5 1.104c-.073.326-.15.652-.22.979l-1.355 6.344c-.195.91-.388 1.822-.587 2.732a1.363 1.363 0 0 1-.129.342c-.152.287-.402.394-.71.298a1.406 1.406 0 0 1-.402-.195c-1.006-.729-2.007-1.465-3.01-2.2l-.116-.082c-.033.029-.065.053-.094.08l-1.552 1.481a.714.714 0 0 1-.559.223l.056-.836.125-1.73c.007-.09.03-.184.019-.272-.046-.332.141-.525.37-.729 1.856-1.654 3.703-3.319 5.553-4.98.027-.025.062-.046.078-.076.03-.056.047-.118.07-.177-.063-.017-.132-.06-.187-.047a1.153 1.153 0 0 0-.323.136 6370.27 6370.27 0 0 0-7.229 4.524c-.067.042-.126.065-.212.038-1.022-.323-2.047-.638-3.069-.961a1.302 1.302 0 0 1-.352-.172c-.199-.14-.223-.344-.045-.51.13-.12.288-.228.453-.294.86-.342 1.728-.67 2.593-1C6.953 2.76 10.24 1.5 13.528.243c.104-.04.218-.067.33-.075.296-.023.515.137.605.425.011.034.025.067.037.1v.41Z" clip-rule="evenodd"></path>
    </g>
  </symbol>
  <symbol xmlns="http://www.w3.org/2000/svg" fill="none" viewBox="0 0 20 20" id="icon-flag">
    <g clip-path="url(#icon-flag-clip)">
      <path fill="#00247D" d="M0 5.033v2.19h3.127L0 5.032Zm2.591 12.19h4.631V13.98l-4.63 3.242Zm10.187-3.243v3.242h4.63l-4.63-3.242ZM0 12.778v2.19l3.128-2.19H0Zm17.41-10h-4.632V6.02l4.631-3.243ZM20 14.968v-2.19h-3.128L20 14.968Zm0-7.746v-2.19l-3.127 2.19H20ZM7.222 2.778h-4.63l4.63 3.243V2.778Z"></path>
      <path fill="#CF1B2B" d="m13.967 12.778 5.395 3.778a2.21 2.21 0 0 0 .55-.972l-4.008-2.806h-1.937Zm-6.745 0H6.033L.638 16.555c.29.295.66.505 1.077.603l5.507-3.856v-.524Zm5.556-5.556h1.19l5.394-3.778a2.216 2.216 0 0 0-1.076-.602l-5.508 3.856v.524Zm-6.745 0L.638 3.444a2.219 2.219 0 0 0-.55.972l4.008 2.806h1.937Z"></path>
      <path fill="#EEE" d="M20 11.667h-8.333v5.555h1.11V13.98l4.631 3.242h.37a2.217 2.217 0 0 0 1.584-.666l-5.395-3.778h1.937l4.008 2.806c.052-.187.088-.38.088-.584v-.032l-3.128-2.19H20v-1.111Zm-20 0v1.11h3.128L0 14.968V15c0 .606.244 1.154.638 1.556l5.395-3.778h1.19v.524l-5.509 3.856c.164.039.333.064.508.064h.37l4.63-3.243v3.243h1.111v-5.555H0ZM20 5c0-.582-.229-1.141-.638-1.555l-5.395 3.777h-1.19v-.524l5.51-3.856a2.222 2.222 0 0 0-.51-.064h-.368L12.778 6.02V2.778h-1.111v5.555H20v-1.11h-3.127L20 5.032V5ZM7.222 2.778V6.02l-4.63-3.243h-.37a2.214 2.214 0 0 0-1.584.667l5.395 3.777H4.096L.087 4.416C.032 4.606.003 4.802 0 5v.033l3.127 2.19H0v1.11h8.333V2.778h-1.11Z"></path>
      <path fill="#CF1B2B" d="M11.667 8.333V2.778H8.333v5.555H0v3.334h8.333v5.555h3.334v-5.555H20V8.333h-8.333Z"></path>
    </g>
    <defs>
      <clipPath id="icon-flag-clip">
        <path fill="#fff" d="M0 0h20v20H0z"></path>
      </clipPath>
    </defs>
  </symbol>
  <symbol xmlns="http://www.w3.org/2000/svg" fill="none" viewBox="0 0 24 24" id="icon-like">
    <path fill-rule="evenodd" clip-rule="evenodd" d="M21.52 18.9471C21.17 20.0251 20.996 20.5641 20.537 21.0531C20.302 21.3031 19.938 21.5681 19.627 21.7141C19.02 22.0001 18.357 22.0001 17.033 22.0001H4.2C3.545 22.0001 3.218 22.0001 2.977 21.8531C2.84251 21.7707 2.72943 21.6576 2.647 21.5231C2.5 21.2831 2.5 20.9551 2.5 20.3001V11.0541C2.5 10.3991 2.5 10.0721 2.647 9.8311C2.72943 9.69661 2.84251 9.58353 2.977 9.5011C3.218 9.3541 3.545 9.3541 4.2 9.3541H6.5C9.537 9.3541 10.268 4.8271 10.444 2.6471C10.507 1.8631 10.741 1.3221 11.626 1.2821C12.481 1.2441 13.651 1.4761 14.5 2.7501C15.848 4.7721 15.52 6.4071 15.042 8.7931C15.013 8.9351 15.059 9.0001 15.207 9.0001H17.521C19.429 9.0001 20.383 9.0001 21.118 9.4651C21.5239 9.73057 21.8641 10.0848 22.113 10.5011C22.547 11.2541 22.513 12.1001 22.443 13.7911C22.3812 15.5448 22.0704 17.2808 21.52 18.9471ZM13.956 5.6771C13.977 6.4331 13.818 7.2671 13.57 8.5041C13.515 8.74678 13.5161 8.99882 13.5732 9.24101C13.6304 9.48321 13.742 9.70916 13.8997 9.90166C14.0574 10.0942 14.2569 10.2481 14.4831 10.3518C14.7093 10.4555 14.9562 10.5063 15.205 10.5001C15.977 10.4941 16.749 10.5001 17.521 10.5001C18.506 10.5001 19.131 10.5021 19.607 10.5501C20.051 10.5961 20.218 10.6701 20.316 10.7321C20.495 10.8461 20.707 11.0671 20.813 11.2511C20.981 11.5421 21.02 11.8681 20.944 13.7311C20.8881 15.3481 20.6019 16.9489 20.094 18.4851C19.715 19.6511 19.628 19.8301 19.444 20.0261C19.31 20.1593 19.1562 20.271 18.988 20.3571C18.753 20.4671 18.488 20.5001 17.033 20.5001C13.689 20.5001 10.344 20.5081 7 20.5051V10.8271C9.135 10.5911 10.318 8.8631 10.93 7.3941C11.603 5.7771 11.845 3.9221 11.938 2.7841C13.302 2.8741 13.923 4.4911 13.956 5.6771ZM6 10.8531V20.5041C5.333 20.5041 4.667 20.5021 4 20.5001C3.99 17.2851 3.99 14.0691 4 10.8541C4.667 10.8521 5.333 10.8531 6 10.8541V10.8531Z" fill="currentColor"/>
  </symbol>
  <symbol xmlns="http://www.w3.org/2000/svg" fill="none" viewBox="0 0 16 16" id="icon-location">
    <path fill="currentColor" fill-rule="evenodd" d="M13.687 2.313a.5.5 0 0 1 .109.544L9.129 14.191a.5.5 0 0 1-.922.006L6.286 9.714 1.803 7.793a.5.5 0 0 1 .007-.922l11.333-4.667a.5.5 0 0 1 .544.11ZM3.29 7.343l3.573 1.53a.5.5 0 0 1 .262.263l1.531 3.573 3.757-9.123-9.123 3.757Z" clip-rule="evenodd"></path>
  </symbol>
  <symbol xmlns="http://www.w3.org/2000/svg" viewBox="0 0 24 24" fill="none" id="icon-burger">
    <path fill="currentColor" fill-rule="evenodd" clip-rule="evenodd" d="M2 5.75C2 5.55109 2.07902 5.36032 2.21967 5.21967C2.36032 5.07902 2.55109 5 2.75 5H21.25C21.4489 5 21.6397 5.07902 21.7803 5.21967C21.921 5.36032 22 5.55109 22 5.75C22 5.94891 21.921 6.13968 21.7803 6.28033C21.6397 6.42098 21.4489 6.5 21.25 6.5H2.75C2.55109 6.5 2.36032 6.42098 2.21967 6.28033C2.07902 6.13968 2 5.94891 2 5.75ZM2 11.75C2 11.5511 2.07902 11.3603 2.21967 11.2197C2.36032 11.079 2.55109 11 2.75 11H21.25C21.4489 11 21.6397 11.079 21.7803 11.2197C21.921 11.3603 22 11.5511 22 11.75C22 11.9489 21.921 12.1397 21.7803 12.2803C21.6397 12.421 21.4489 12.5 21.25 12.5H2.75C2.55109 12.5 2.36032 12.421 2.21967 12.2803C2.07902 12.1397 2 11.9489 2 11.75ZM2 17.75C2 17.5511 2.07902 17.3603 2.21967 17.2197C2.36032 17.079 2.55109 17 2.75 17H21.25C21.4489 17 21.6397 17.079 21.7803 17.2197C21.921 17.3603 22 17.5511 22 17.75C22 17.9489 21.921 18.1397 21.7803 18.2803C21.6397 18.421 21.4489 18.5 21.25 18.5H2.75C2.55109 18.5 2.36032 18.421 2.21967 18.2803C2.07902 18.1397 2 17.9489 2 17.75Z"/>
  </symbol>
  <symbol xmlns="http://www.w3.org/2000/svg" viewBox="0 0 24 24" fill="none" id="icon-search">
    <path fill="currentColor" fill-rule="evenodd" clip-rule="evenodd" d="M14.5547 15.9692C13.0972 17.0687 11.2768 17.5744 9.46103 17.3843C7.64523 17.1941 5.96915 16.3223 4.77101 14.9447C3.57286 13.5672 2.94186 11.7864 3.00534 9.96175C3.06882 8.13713 3.82205 6.40451 5.11303 5.11352C6.40402 3.82254 8.13664 3.06931 9.96126 3.00583C11.7859 2.94235 13.5667 3.57335 14.9442 4.77149C16.3218 5.96964 17.1936 7.64572 17.3838 9.46152C17.5739 11.2773 17.0682 13.0976 15.9687 14.5552L20.7047 19.2912C20.8923 19.4787 20.9978 19.733 20.9979 19.9983C20.998 20.2636 20.8927 20.518 20.7052 20.7057C20.5177 20.8933 20.2633 20.9988 19.998 20.9989C19.7328 20.999 19.4783 20.8937 19.2907 20.7062L14.5547 15.9692ZM15.9227 10.2112C15.9227 10.9612 15.7749 11.7039 15.4879 12.3969C15.2009 13.0898 14.7802 13.7194 14.2498 14.2498C13.7195 14.7802 13.0898 15.2009 12.3969 15.4879C11.7039 15.7749 10.9612 15.9227 10.2112 15.9227C9.46113 15.9227 8.71843 15.7749 8.02548 15.4879C7.33253 15.2009 6.7029 14.7802 6.17253 14.2498C5.64217 13.7194 5.22147 13.0898 4.93444 12.3969C4.64741 11.7039 4.49967 10.9612 4.49967 10.2112C4.49967 8.69638 5.10142 7.24364 6.17253 6.17252C7.24365 5.10141 8.69639 4.49966 10.2112 4.49966C11.726 4.49966 13.1787 5.10141 14.2498 6.17252C15.3209 7.24364 15.9227 8.69638 15.9227 10.2112Z"/>
  </symbol>
  <symbol xmlns="http://www.w3.org/2000/svg" viewBox="0 0 24 24" fill="none" id="icon-close">
    <path fill="currentColor" fill-rule="evenodd" clip-rule="evenodd" d="M18.7179 5.28282C18.8584 5.42344 18.9373 5.61407 18.9373 5.81282C18.9373 6.01157 18.8584 6.20219 18.7179 6.34282L13.0599 11.9998L18.7169 17.6568C18.8535 17.7983 18.929 17.9878 18.9272 18.1845C18.9254 18.3811 18.8464 18.5692 18.7073 18.7082C18.5682 18.8472 18.38 18.926 18.1834 18.9276C17.9867 18.9292 17.7973 18.8535 17.6559 18.7168L11.9999 13.0618L6.34293 18.7188C6.27371 18.7904 6.19092 18.8475 6.0994 18.8868C6.00788 18.926 5.90946 18.9467 5.80987 18.9475C5.71029 18.9483 5.61154 18.9293 5.51938 18.8915C5.42723 18.8538 5.34352 18.7981 5.27313 18.7276C5.20274 18.6572 5.14709 18.5734 5.10943 18.4812C5.07176 18.389 5.05283 18.2902 5.05374 18.1907C5.05465 18.0911 5.07539 17.9927 5.11474 17.9012C5.15409 17.8097 5.21126 17.727 5.28293 17.6578L10.9379 11.9998L5.28193 6.34282C5.14537 6.2013 5.06987 6.01181 5.07167 5.81517C5.07347 5.61852 5.15243 5.43044 5.29156 5.29145C5.43068 5.15246 5.61883 5.07367 5.81548 5.07206C6.01212 5.07044 6.20154 5.14613 6.34293 5.28282L11.9999 10.9388L17.6569 5.28282C17.7976 5.14237 17.9882 5.06348 18.1869 5.06348C18.3857 5.06348 18.5763 5.14237 18.7169 5.28282H18.7179Z"/>
  </symbol>
  <symbol xmlns="http://www.w3.org/2000/svg" viewBox="0 0 24 24" fill="none" id="icon-decor">
    <circle cx="2" cy="2" r="2" fill="#B7B8BC"/>
    <circle cx="2" cy="12" r="2" fill="#B7B8BC"/>
    <circle cx="2" cy="22" r="2" fill="#B7B8BC"/>
    <circle cx="12" cy="2" r="2" fill="#B7B8BC"/>
    <circle cx="12" cy="12" r="2" fill="#1E222E"/>
    <circle cx="12" cy="22" r="2" fill="#B7B8BC"/>
    <circle cx="22" cy="2" r="2" fill="#B7B8BC"/>
    <circle cx="22" cy="12" r="2" fill="#B7B8BC"/>
    <circle cx="22" cy="22" r="2" fill="#B7B8BC"/>
  </symbol>
  <symbol xmlns="http://www.w3.org/2000/svg" viewBox="0 0 24 24" fill="none" id="icon-like">
    <path fill-rule="evenodd" clip-rule="evenodd" d="M21.52 18.9471C21.17 20.0251 20.996 20.5641 20.537 21.0531C20.302 21.3031 19.938 21.5681 19.627 21.7141C19.02 22.0001 18.357 22.0001 17.033 22.0001H4.2C3.545 22.0001 3.218 22.0001 2.977 21.8531C2.84251 21.7707 2.72943 21.6576 2.647 21.5231C2.5 21.2831 2.5 20.9551 2.5 20.3001V11.0541C2.5 10.3991 2.5 10.0721 2.647 9.8311C2.72943 9.69661 2.84251 9.58353 2.977 9.5011C3.218 9.3541 3.545 9.3541 4.2 9.3541H6.5C9.537 9.3541 10.268 4.8271 10.444 2.6471C10.507 1.8631 10.741 1.3221 11.626 1.2821C12.481 1.2441 13.651 1.4761 14.5 2.7501C15.848 4.7721 15.52 6.4071 15.042 8.7931C15.013 8.9351 15.059 9.0001 15.207 9.0001H17.521C19.429 9.0001 20.383 9.0001 21.118 9.4651C21.5239 9.73057 21.8641 10.0848 22.113 10.5011C22.547 11.2541 22.513 12.1001 22.443 13.7911C22.3812 15.5448 22.0704 17.2808 21.52 18.9471ZM13.956 5.6771C13.977 6.4331 13.818 7.2671 13.57 8.5041C13.515 8.74678 13.5161 8.99882 13.5732 9.24101C13.6304 9.48321 13.742 9.70916 13.8997 9.90167C14.0574 10.0942 14.2569 10.2481 14.4831 10.3518C14.7093 10.4555 14.9562 10.5063 15.205 10.5001C15.977 10.4941 16.749 10.5001 17.521 10.5001C18.506 10.5001 19.131 10.5021 19.607 10.5501C20.051 10.5961 20.218 10.6701 20.316 10.7321C20.495 10.8461 20.707 11.0671 20.813 11.2511C20.981 11.5421 21.02 11.8681 20.944 13.7311C20.8881 15.3481 20.6019 16.9489 20.094 18.4851C19.715 19.6511 19.628 19.8301 19.444 20.0261C19.31 20.1593 19.1562 20.271 18.988 20.3571C18.753 20.4671 18.488 20.5001 17.033 20.5001C13.689 20.5001 10.344 20.5081 7 20.5051V10.8271C9.135 10.5911 10.318 8.8631 10.93 7.3941C11.603 5.7771 11.845 3.9221 11.938 2.7841C13.302 2.8741 13.923 4.4911 13.956 5.6771ZM6 10.8531V20.5041C5.333 20.5041 4.667 20.5021 4 20.5001C3.99 17.2851 3.99 14.0691 4 10.8541C4.667 10.8521 5.333 10.8531 6 10.8541V10.8531Z" fill="currentColor"/>
  </symbol>
  <symbol xmlns="http://www.w3.org/2000/svg" viewBox="0 0 16 16" fill="none" id="icon-arrow-right">
     <path fill-rule="evenodd" clip-rule="evenodd" d="M8.55532 12.7781C8.64907 12.8717 8.77616 12.9243 8.90866 12.9243C9.04116 12.9243 9.16824 12.8717 9.26199 12.7781L13.6867 8.35342C13.7803 8.25967 13.8329 8.13259 13.8329 8.00008C13.8329 7.86758 13.7803 7.7405 13.6867 7.64675L9.26199 3.22209C9.16721 3.13377 9.04184 3.08568 8.91231 3.08797C8.78277 3.09025 8.65918 3.14273 8.56758 3.23434C8.47597 3.32595 8.42349 3.44954 8.42121 3.57907C8.41892 3.7086 8.467 3.83397 8.55532 3.92875L12.126 7.50008H2.66666C2.53405 7.50008 2.40687 7.55276 2.3131 7.64653C2.21933 7.7403 2.16666 7.86748 2.16666 8.00008C2.16666 8.13269 2.21933 8.25987 2.3131 8.35364C2.40687 8.44741 2.53405 8.50008 2.66666 8.50008H12.1267L8.55532 12.0714C8.46169 12.1652 8.4091 12.2923 8.4091 12.4248C8.4091 12.5573 8.46169 12.6843 8.55532 12.7781Z" fill="currentColor"/>
  </symbol>
  <symbol xmlns="http://www.w3.org/2000/svg" viewBox="0 0 32 32" fill="none" id="icon-bank">
    <path fill-rule="evenodd" clip-rule="evenodd" d="M2.66675 12.8306C2.66675 12.4306 2.66675 12.2306 2.70141 12.0453C2.77939 11.6371 2.98258 11.2633 3.28275 10.9759C3.41875 10.8453 3.58541 10.7359 3.92008 10.5186L14.7641 3.47061C15.2561 3.15061 15.5014 2.99061 15.7707 2.94394C15.9225 2.91745 16.0777 2.91745 16.2294 2.94394C16.4974 2.99061 16.7441 3.15061 17.2347 3.47061L28.0787 10.5186C28.4134 10.7359 28.5814 10.8453 28.7174 10.9759C29.0171 11.2635 29.2198 11.6373 29.2974 12.0453C29.3334 12.2319 29.3334 12.4306 29.3334 12.8306C29.3334 13.2986 29.3334 13.5333 29.2747 13.7239C29.2111 13.9326 29.0972 14.1224 28.943 14.2767C28.7889 14.4311 28.5993 14.5453 28.3907 14.6093C28.2001 14.6679 27.9641 14.6679 27.4961 14.6679H25.3334V23.3346C25.3334 23.5998 25.2281 23.8542 25.0405 24.0417C24.853 24.2293 24.5986 24.3346 24.3334 24.3346C24.0682 24.3346 23.8138 24.2293 23.6263 24.0417C23.4388 23.8542 23.3334 23.5998 23.3334 23.3346V14.6679H19.8494V23.3346C19.8494 23.5998 19.7441 23.8542 19.5565 24.0417C19.369 24.2293 19.1146 24.3346 18.8494 24.3346C18.5842 24.3346 18.3298 24.2293 18.1423 24.0417C17.9548 23.8542 17.8494 23.5998 17.8494 23.3346V14.6679H14.1334V23.3346C14.1334 23.5998 14.0281 23.8542 13.8405 24.0417C13.653 24.2293 13.3986 24.3346 13.1334 24.3346C12.8682 24.3346 12.6138 24.2293 12.4263 24.0417C12.2388 23.8542 12.1334 23.5998 12.1334 23.3346V14.6679H8.66675V23.3346C8.66675 23.5998 8.56139 23.8542 8.37386 24.0417C8.18632 24.2293 7.93196 24.3346 7.66675 24.3346C7.40153 24.3346 7.14718 24.2293 6.95964 24.0417C6.7721 23.8542 6.66675 23.5998 6.66675 23.3346V14.6679H4.50408C4.03475 14.6679 3.80008 14.6679 3.61075 14.6093C3.40198 14.5455 3.21207 14.4314 3.0577 14.277C2.90333 14.1226 2.78923 13.9327 2.72541 13.7239C2.66675 13.5333 2.66675 13.2986 2.66675 12.8306ZM27.3294 12.4213L27.3334 12.6679H4.66675L4.66941 12.4213C8.33342 10.0399 12.3334 7.42661 16.0001 5.05328C19.6681 7.42661 23.6667 10.0399 27.3294 12.4213Z" fill="currentColor"/>
    <path d="M4.66675 28.0012C4.40153 28.0012 4.14718 27.8959 3.95964 27.7083C3.7721 27.5208 3.66675 27.2664 3.66675 27.0012C3.66675 26.736 3.7721 26.4817 3.95964 26.2941C4.14718 26.1066 4.40153 26.0012 4.66675 26.0012H27.3334C27.5986 26.0012 27.853 26.1066 28.0405 26.2941C28.2281 26.4817 28.3334 26.736 28.3334 27.0012C28.3334 27.2664 28.2281 27.5208 28.0405 27.7083C27.853 27.8959 27.5986 28.0012 27.3334 28.0012H4.66675Z" fill="currentColor"/>
  </symbol>
  <symbol xmlns="http://www.w3.org/2000/svg" viewBox="0 0 32 32" fill="none" id="icon-control">
    <path fill-rule="evenodd" clip-rule="evenodd" d="M4 8.13193C4 7.4346 4 7.0866 4.13067 6.81193C4.22733 6.60901 4.37476 6.43448 4.55867 6.30526C4.80533 6.12793 5.16267 6.06526 5.87467 5.94126C9.24133 5.3546 11.3347 4.5906 14.9093 2.61326C15.3333 2.37993 15.5453 2.2626 15.7587 2.2226C15.9181 2.1924 16.0819 2.1924 16.2413 2.2226C16.4547 2.2626 16.668 2.37993 17.0907 2.61326C20.664 4.5906 22.7573 5.3546 26.1253 5.94126C26.8373 6.06526 27.1947 6.12793 27.4413 6.30393C27.628 6.43726 27.7693 6.60526 27.868 6.81193C28 7.0866 28 7.4346 28 8.13193V11.8826C28 25.1013 18.896 29.2159 16.5467 30.0573C16.3893 30.1146 16.3107 30.1426 16.1653 30.1613C16.0554 30.1716 15.9446 30.1716 15.8347 30.1613C15.7032 30.1433 15.5745 30.1083 15.452 30.0573C13.104 29.2159 4 25.1013 4 11.8826V8.13193ZM26 11.8826C26 17.9799 23.92 21.8319 21.684 24.2559C19.5 26.6239 17.0707 27.7279 16 28.1279C14.928 27.7279 12.5 26.6239 10.316 24.2559C8.08 21.8319 6 17.9799 6 11.8826C6 10.5719 5.99733 9.26126 6 7.94926C9.62 7.31993 12.2667 6.36393 16 4.29726C19.7347 6.36393 22.38 7.32126 26 7.95059C26.0027 9.26259 26 10.5733 26 11.8839V11.8826ZM17.4667 14.1093V12.3799C17.4667 11.9909 17.3121 11.6179 17.0371 11.3428C16.762 11.0678 16.389 10.9133 16 10.9133C15.611 10.9133 15.238 11.0678 14.9629 11.3428C14.6879 11.6179 14.5333 11.9909 14.5333 12.3799V14.1066H17.4667V14.1093ZM19.4667 14.1479V12.3813C19.4667 11.4618 19.1014 10.5801 18.4513 9.92996C17.8012 9.27983 16.9194 8.91459 16 8.91459C15.0806 8.91459 14.1988 9.27983 13.5487 9.92996C12.8986 10.5801 12.5333 11.4618 12.5333 12.3813V14.1373C12.204 14.1666 11.9573 14.2226 11.7453 14.3333C11.3798 14.5231 11.0818 14.8211 10.892 15.1866C10.6667 15.6199 10.6667 16.1893 10.6667 17.3279V19.2973C10.6667 20.0573 10.6667 20.4359 10.8173 20.7253C10.9436 20.969 11.1419 21.1678 11.3853 21.2946C11.6747 21.4439 12.0547 21.4439 12.8133 21.4439H19.084C19.844 21.4439 20.2227 21.4439 20.512 21.2946C20.7554 21.1678 20.9538 20.969 21.08 20.7253C21.2307 20.4373 21.2307 20.0573 21.2307 19.2986V17.3279C21.2307 16.1893 21.2307 15.6199 21.0053 15.1866C20.8155 14.8211 20.5175 14.5231 20.152 14.3333C19.9372 14.2291 19.7047 14.1662 19.4667 14.1479Z" fill="currentColor"/>
  </symbol>
  <symbol xmlns="http://www.w3.org/2000/svg" viewBox="0 0 32 32" fill="none" id="icon-hand">
    <path fill-rule="evenodd" clip-rule="evenodd" d="M15.9533 1.42529C14.9266 1.42529 14.0199 1.94796 13.4893 2.74129C13.0421 2.58423 12.5638 2.53665 12.0944 2.60252C11.6251 2.6684 11.1784 2.84582 10.7917 3.11991C10.405 3.39401 10.0897 3.75679 9.87215 4.17786C9.65459 4.59892 9.54112 5.06601 9.54126 5.53996V6.05996C9.11668 5.98992 8.68193 6.01312 8.26722 6.12796C7.8525 6.24281 7.46775 6.44654 7.13968 6.72501C6.8116 7.00348 6.54807 7.35002 6.36737 7.74056C6.18667 8.13111 6.09313 8.5563 6.09326 8.98663V20.8053C6.09378 23.0052 6.85483 25.1374 8.24745 26.8404C9.64007 28.5434 11.5786 29.7127 13.7347 30.15C15.8907 30.5873 18.1316 30.2659 20.0778 29.24C22.0239 28.2142 23.5556 26.5472 24.4133 24.5213L27.9199 16.2373C28.2444 15.5082 28.2668 14.6804 27.9823 13.9348C27.6978 13.1892 27.1296 12.5868 26.4019 12.2592C25.6743 11.9316 24.8465 11.9056 24.0997 12.1868C23.3529 12.4681 22.748 13.0337 22.4173 13.76L22.3679 13.864L22.3666 5.54129C22.3667 5.06734 22.2533 4.60026 22.0357 4.17919C21.8181 3.75812 21.5028 3.39534 21.1162 3.12125C20.7295 2.84715 20.2828 2.66973 19.8134 2.60386C19.3441 2.53798 18.8658 2.58557 18.4186 2.74263C18.1477 2.33729 17.781 2.0051 17.3509 1.77553C16.9209 1.54595 16.4408 1.42611 15.9533 1.42663V1.42529ZM12.5066 4.48263C13.0559 4.48263 13.5079 4.90263 13.5586 5.43863V15.1626C13.9786 15.0826 14.4253 15.008 14.8919 14.9426V4.39063C14.8919 4.25178 14.9193 4.11428 14.9724 3.986C15.0255 3.85772 15.1034 3.74116 15.2016 3.64298C15.2998 3.5448 15.4164 3.46691 15.5446 3.41378C15.6729 3.36064 15.8104 3.33329 15.9493 3.33329C16.0881 3.33329 16.2256 3.36064 16.3539 3.41378C16.4822 3.46691 16.5987 3.5448 16.6969 3.64298C16.7951 3.74116 16.873 3.85772 16.9261 3.986C16.9792 4.11428 17.0066 4.25178 17.0066 4.39063L17.0093 14.724C17.4413 14.6946 17.8853 14.6746 18.3426 14.6666V5.53996C18.3376 5.39804 18.3612 5.25656 18.412 5.12395C18.4628 4.99135 18.5398 4.87035 18.6385 4.76816C18.7371 4.66598 18.8553 4.58471 18.986 4.5292C19.1167 4.47369 19.2573 4.44509 19.3993 4.44509C19.5413 4.44509 19.6818 4.47369 19.8125 4.5292C19.9433 4.58471 20.0614 4.66598 20.1601 4.76816C20.2587 4.87035 20.3357 4.99135 20.3865 5.12395C20.4374 5.25656 20.461 5.39804 20.4559 5.53996V17.7413H20.4599V19.3333C20.4596 19.4849 20.5108 19.632 20.6053 19.7506C20.6998 19.8691 20.8319 19.9518 20.9797 19.9852C21.1276 20.0186 21.2824 20.0006 21.4186 19.9342C21.5549 19.8678 21.6645 19.757 21.7293 19.62L24.1386 14.5826C24.2595 14.3144 24.4821 14.1052 24.7572 14.0011C24.8935 13.9495 25.0386 13.9253 25.1842 13.9298C25.3298 13.9343 25.4731 13.9674 25.6059 14.0273C25.7387 14.0872 25.8585 14.1726 25.9582 14.2788C26.058 14.3849 26.1359 14.5097 26.1875 14.6459C26.2391 14.7822 26.2633 14.9273 26.2588 15.0729C26.2543 15.2185 26.2211 15.3618 26.1613 15.4946L22.6559 23.7773C21.9702 25.3986 20.7449 26.7328 19.1878 27.5539C17.6307 28.375 15.8375 28.6323 14.1124 28.2823C12.3872 27.9323 10.8361 26.9965 9.72207 25.6335C8.60805 24.2706 7.99962 22.5643 7.99993 20.804V8.98663C7.99993 8.7062 8.11133 8.43727 8.30961 8.23898C8.5079 8.04069 8.77684 7.92929 9.05726 7.92929C9.33768 7.92929 9.60662 8.04069 9.80491 8.23898C10.0032 8.43727 10.1146 8.7062 10.1146 8.98663V15.9773C10.1146 16.004 10.1146 16.0306 10.1186 16.0573C10.4786 15.9346 10.9239 15.7946 11.4479 15.6506V5.53996C11.4479 4.95596 11.9213 4.48263 12.5053 4.48263H12.5066Z" fill="currentColor"/>
  </symbol>
  <symbol xmlns="http://www.w3.org/2000/svg" viewBox="0 0 32 32" fill="none" id="icon-flower">
    <path d="M25.5294 6.73062C25.0344 5.90744 24.3344 5.22662 23.4979 4.75459C22.6613 4.28255 21.7166 4.03542 20.7561 4.03729C20.2576 3.20456 19.5498 2.51682 18.7032 2.04244C17.8565 1.56807 16.9004 1.32358 15.9299 1.33329C14.9594 1.34299 14.0084 1.60656 13.1714 2.09778C12.3343 2.589 11.6405 3.29076 11.1588 4.13329C10.6656 3.29584 9.96121 2.60252 9.11607 2.12264C8.27093 1.64277 7.31463 1.39315 6.34277 1.39873C5.37091 1.40432 4.41755 1.66492 3.57798 2.15448C2.73842 2.64405 2.04207 3.34542 1.55856 4.18848C1.07504 5.03154 0.821299 5.98676 0.822698 6.95863C0.824096 7.9305 1.08059 8.88499 1.56652 9.72665C2.05246 10.5683 2.75083 11.2677 3.5918 11.7548C4.43277 12.242 5.38688 12.4998 6.35875 12.5026C5.86963 13.352 5.61416 14.3158 5.61832 15.296C5.62248 16.2762 5.88611 17.2378 6.38242 18.083C6.87873 18.9282 7.59 19.627 8.44394 20.1082C9.29787 20.5894 10.264 20.8359 11.2441 20.8226C11.739 21.6685 12.4487 22.3685 13.3013 22.8517C14.1539 23.3349 15.119 23.5842 16.099 23.5744C17.0789 23.5645 18.0389 23.2958 18.8815 22.7954C19.7242 22.2951 20.4196 21.5809 20.8974 20.7253C21.8775 20.7168 22.8378 20.4494 23.6812 19.9502C24.5247 19.451 25.2211 18.7377 25.7001 17.8826C26.1789 17.0281 26.4228 16.062 26.4071 15.0826C26.3914 14.1032 26.1167 13.1454 25.6108 12.3066C26.0905 11.4528 26.3359 10.4872 26.3218 9.50784C26.3078 8.52852 26.0348 7.57035 25.5308 6.73062H25.5294ZM1.41875 20.8586C10.0014 20.7773 14.2587 27.0533 15.5934 29.5066C15.8467 29.9733 15.5281 30.5466 14.9974 30.592C5.06942 31.464 1.63475 24.4466 0.71075 21.844C0.671615 21.7317 0.660054 21.6117 0.677039 21.494C0.694025 21.3763 0.739061 21.2645 0.808347 21.1679C0.877633 21.0713 0.969136 20.9927 1.07514 20.9389C1.18114 20.8851 1.29854 20.8576 1.41742 20.8586H1.41875ZM30.5814 20.8586C31.0974 20.864 31.4627 21.3586 31.2894 21.844C30.3654 24.4466 26.9294 31.464 17.0028 30.592C16.8804 30.5821 16.7624 30.542 16.6594 30.4754C16.5563 30.4087 16.4715 30.3174 16.4124 30.2098C16.3533 30.1023 16.3219 29.9817 16.3209 29.8589C16.3199 29.7362 16.3494 29.6151 16.4067 29.5066C17.7401 27.0533 21.9988 20.7773 30.5814 20.8586ZM16.0001 8.39462C16.5394 8.38485 17.0752 8.48262 17.5762 8.68223C18.0773 8.88184 18.5336 9.17929 18.9184 9.5572C19.3032 9.93512 19.6089 10.3859 19.8175 10.8833C20.0262 11.3806 20.1337 11.9146 20.1337 12.454C20.1337 12.9933 20.0262 13.5273 19.8175 14.0246C19.6089 14.522 19.3032 14.9728 18.9184 15.3507C18.5336 15.7286 18.0773 16.0261 17.5762 16.2257C17.0752 16.4253 16.5394 16.5231 16.0001 16.5133C14.9417 16.4862 13.9357 16.0466 13.1967 15.2884C12.4577 14.5303 12.0441 13.5134 12.0441 12.4546C12.0441 11.3959 12.4577 10.379 13.1967 9.62079C13.9357 8.8626 14.9417 8.42175 16.0001 8.39462Z" fill="currentColor"/>
  </symbol>
  <symbol xmlns="http://www.w3.org/2000/svg" viewBox="0 0 32 32" fill="none" id="icon-globe">
    <path fill-rule="evenodd" clip-rule="evenodd" d="M16.0001 29.3333C23.3641 29.3333 29.3334 23.364 29.3334 16C29.3334 8.63596 23.3641 2.66663 16.0001 2.66663C8.63608 2.66663 2.66675 8.63596 2.66675 16C2.66675 23.364 8.63608 29.3333 16.0001 29.3333ZM19.5427 26.768C21.701 26.0566 23.5958 24.7133 24.9813 22.9122C26.3669 21.111 27.1794 18.9351 27.3134 16.6666H21.4227C21.3534 20.2373 20.7427 23.0893 20.1294 25.0853C19.9281 25.7386 19.7267 26.3026 19.5427 26.768ZM17.9227 27.1706L18.0107 26.9786C18.2374 26.4653 18.5467 25.6973 18.8547 24.6933C19.4361 22.8053 20.0201 20.0866 20.0894 16.6666H11.9121C11.9801 20.0866 12.5654 22.8053 13.1454 24.6933C13.4024 25.5383 13.7137 26.3658 14.0774 27.1706C15.35 27.3882 16.6502 27.3882 17.9227 27.1706ZM12.4574 26.7693C10.2988 26.058 8.40372 24.7145 7.0179 22.9131C5.63208 21.1117 4.81946 18.9355 4.68541 16.6666H10.5787C10.6467 20.2373 11.2574 23.0893 11.8721 25.0853C12.0721 25.7386 12.2734 26.3026 12.4574 26.7693ZM11.9107 15.3333H20.0894C20.0201 11.9133 19.4361 9.19463 18.8547 7.30663C18.5977 6.46166 18.2864 5.63417 17.9227 4.82929C16.6502 4.61168 15.35 4.61168 14.0774 4.82929L13.9907 5.02129C13.7627 5.53463 13.4547 6.30263 13.1454 7.30663C12.5641 9.19463 11.9801 11.9133 11.9121 15.3333H11.9107ZM12.4574 5.23063C12.2747 5.69729 12.0721 6.25996 11.8707 6.91463C11.2574 8.91063 10.6467 11.7626 10.5774 15.3333H4.68675C4.82089 13.0643 5.63371 10.888 7.01978 9.08654C8.40586 7.28512 10.3012 5.94174 12.4601 5.23063H12.4574ZM19.5427 5.23063C19.7254 5.69729 19.9281 6.25996 20.1294 6.91463C20.7427 8.91063 21.3534 11.7626 21.4227 15.3333H27.3134C27.1794 13.0648 26.3669 10.8889 24.9813 9.08775C23.5958 7.2866 21.701 5.94194 19.5427 5.23063Z" fill="currentColor"/>
  </symbol>
  <symbol xmlns="http://www.w3.org/2000/svg" viewBox="0 0 32 32" fill="none" id="icon-worker">
    <path fill-rule="evenodd" clip-rule="evenodd" d="M16.0001 14.6666C18.9467 14.6666 21.3334 13.1666 21.3334 8.66663C21.3334 4.16663 18.9467 2.66663 16.0001 2.66663C13.0534 2.66663 10.6667 4.16663 10.6667 8.66663C10.6667 13.1666 13.0534 14.6666 16.0001 14.6666ZM18.3774 11.92C18.8321 11.4786 19.3334 10.576 19.3334 8.66663C19.3334 6.75729 18.8321 5.85463 18.3774 5.41329C17.9107 4.95996 17.1587 4.66663 16.0001 4.66663C14.8414 4.66663 14.0894 4.95996 13.6227 5.41329C13.1681 5.85463 12.6667 6.75729 12.6667 8.66663C12.6667 10.576 13.1681 11.4786 13.6227 11.92C14.0894 12.3733 14.8414 12.6666 16.0001 12.6666C17.1587 12.6666 17.9107 12.3733 18.3774 11.92Z" fill="currentColor"/>
    <path fill-rule="evenodd" clip-rule="evenodd" d="M6.20808 18.9706C12.0081 16.1213 19.9921 16.1213 25.7921 18.9706C27.0894 19.608 28.1814 20.408 28.8161 21.74C29.3334 22.828 29.3334 23.7533 29.3334 25.6026C29.3334 26.6 29.3334 27.0986 29.0801 27.448C28.9971 27.5628 28.8962 27.6636 28.7814 27.7466C28.4321 28 27.9334 28 26.9361 28H5.06408C4.06675 28 3.56808 28 3.21875 27.7466C3.10394 27.6636 3.00312 27.5628 2.92008 27.448C2.66675 27.0986 2.66675 26.6 2.66675 25.6026C2.66675 23.7533 2.66675 22.828 3.18408 21.74C3.81875 20.408 4.91075 19.608 6.20808 18.9706ZM14.9681 18.856C12.1734 18.9826 9.42408 19.6186 7.08941 20.7653C6.18941 21.208 5.44141 21.6506 4.99075 22.6C4.70008 23.208 4.66675 23.6586 4.66675 25.6026V25.9986C8.00808 26.02 11.3494 26.0319 14.6907 26.0346L14.9681 18.856ZM17.0334 18.856L17.3094 26.0346C20.6507 26.0319 23.9921 26.0213 27.3321 25.9986L27.3334 25.6026C27.3334 23.6586 27.3001 23.208 27.0094 22.6C26.5587 21.6506 25.8094 21.208 24.9107 20.7653C22.5761 19.6186 19.8267 18.9826 17.0334 18.856Z" fill="currentColor"/>
  </symbol>
  <symbol xmlns="http://www.w3.org/2000/svg" viewBox="0 0 16 16" fill="none" id="icon-question">
    <path d="M8.33734 8.95864C8.29134 9.25997 8.13734 9.44664 7.82667 9.44664C7.48 9.44664 7.28934 9.19997 7.28934 8.86797V8.7813C7.28934 8.21597 7.57134 7.84264 8.14134 7.5053C8.70667 7.1633 8.898 6.91264 8.898 6.4753C8.898 5.97864 8.51067 5.63197 7.95 5.63197C7.444 5.63197 7.10667 5.88264 6.96067 6.3433C6.86067 6.6253 6.692 6.7393 6.44134 6.7393C6.12667 6.7393 5.94 6.54797 5.94 6.24264C5.94 6.04664 5.98134 5.87797 6.068 5.7053C6.35 5.0853 7.06134 4.70264 8 4.70264C9.23467 4.70264 10.0827 5.40397 10.0827 6.43397C10.0827 7.1313 9.736 7.60997 9.116 7.9793C8.51934 8.32597 8.37334 8.54397 8.33734 8.9593V8.95864Z" fill="currentColor"/>
    <path d="M8.49667 10.7773C8.49667 11.1373 8.20534 11.424 7.836 11.424C7.74976 11.4256 7.66406 11.4101 7.58384 11.3784C7.50362 11.3467 7.43047 11.2994 7.36861 11.2393C7.30676 11.1791 7.25742 11.1074 7.22345 11.0281C7.18947 10.9488 7.17154 10.8636 7.17067 10.7773C7.17067 10.4173 7.46667 10.1346 7.836 10.1346C8.20534 10.1346 8.49667 10.4173 8.49667 10.7773Z" fill="currentColor"/>
    <path fill-rule="evenodd" clip-rule="evenodd" d="M7.99999 14.6667C11.682 14.6667 14.6667 11.682 14.6667 8.00004C14.6667 4.31804 11.682 1.33337 7.99999 1.33337C4.31799 1.33337 1.33333 4.31804 1.33333 8.00004C1.33333 11.682 4.31799 14.6667 7.99999 14.6667ZM13.6667 8.00004C13.6667 9.50293 13.0696 10.9443 12.0069 12.007C10.9442 13.0697 9.50289 13.6667 7.99999 13.6667C6.4971 13.6667 5.05576 13.0697 3.99306 12.007C2.93035 10.9443 2.33333 9.50293 2.33333 8.00004C2.33333 6.49715 2.93035 5.05581 3.99306 3.9931C5.05576 2.9304 6.4971 2.33337 7.99999 2.33337C9.50289 2.33337 10.9442 2.9304 12.0069 3.9931C13.0696 5.05581 13.6667 6.49715 13.6667 8.00004Z" fill="currentColor"/>
  </symbol>
  <symbol xmlns="http://www.w3.org/2000/svg" viewBox="0 0 16 16" fill="none" id="icon-arrow-diagonal">
    <path fill-rule="evenodd" clip-rule="evenodd" d="M4.66667 4.5C4.66667 4.36739 4.71934 4.24021 4.81311 4.14645C4.90688 4.05268 5.03406 4 5.16667 4H11.5C11.6326 4 11.7598 4.05268 11.8536 4.14645C11.9473 4.24021 12 4.36739 12 4.5V10.8333C12 10.9659 11.9473 11.0931 11.8536 11.1869C11.7598 11.2807 11.6326 11.3333 11.5 11.3333C11.3674 11.3333 11.2402 11.2807 11.1464 11.1869C11.0527 11.0931 11 10.9659 11 10.8333V5.70667L4.18667 12.52C4.09188 12.6083 3.96652 12.6564 3.83698 12.6541C3.70745 12.6518 3.58386 12.5994 3.49225 12.5077C3.40064 12.4161 3.34817 12.2925 3.34588 12.163C3.3436 12.0335 3.39168 11.9081 3.48 11.8133L10.2933 5H5.16667C5.03406 5 4.90688 4.94732 4.81311 4.85355C4.71934 4.75979 4.66667 4.63261 4.66667 4.5Z" fill="currentColor"/>
  </symbol>
  <symbol xmlns="http://www.w3.org/2000/svg" viewBox="0 0 32 32" fill="none" id="icon-diagram">
    <path fill-rule="evenodd" clip-rule="evenodd" d="M13.2733 24.6667V7.33337H18.7267V24.6667H20.7267V17.6774H26V24.6667H6V12.5054H11.2733V24.6667H13.2733ZM4.14533 11.2334C4 11.5187 4 11.892 4 12.6387V24.5334C4 25.28 4 25.6534 4.14533 25.9387C4.27316 26.1896 4.47713 26.3935 4.728 26.5214C5.01333 26.6667 5.38667 26.6667 6.13333 26.6667H25.8667C26.6133 26.6667 26.9867 26.6667 27.272 26.5214C27.5229 26.3935 27.7268 26.1896 27.8547 25.9387C28 25.6534 28 25.28 28 24.5334V17.8107C28 17.064 28 16.6907 27.8547 16.4054C27.7268 16.1545 27.5229 15.9505 27.272 15.8227C26.9867 15.676 26.6133 15.676 25.8667 15.676H20.728V7.46671C20.728 6.72004 20.728 6.34671 20.5813 6.06137C20.4539 5.81071 20.2504 5.60676 20 5.47871C19.7147 5.33337 19.34 5.33337 18.5933 5.33337H13.4067C12.66 5.33337 12.2867 5.33337 12.0013 5.47871C11.7505 5.60654 11.5465 5.8105 11.4187 6.06137C11.272 6.34671 11.272 6.72004 11.272 7.46671V10.5054H6.13333C5.38667 10.5054 5.01333 10.5054 4.728 10.6507C4.47713 10.7785 4.27316 10.9825 4.14533 11.2334Z" fill="currentColor"/>
  </symbol>
  <symbol xmlns="http://www.w3.org/2000/svg" viewBox="0 0 32 32" fill="none" id="icon-people">
    <path fill-rule="evenodd" clip-rule="evenodd" d="M24.0213 8.95867C24.0213 10.5373 23.648 11.212 23.4 11.484C23.18 11.7253 22.8147 11.9173 22.1173 11.9173C21.42 11.9173 21.0547 11.7253 20.8347 11.484C20.5867 11.212 20.2133 10.5373 20.2133 8.95867C20.2133 7.38 20.5867 6.70533 20.8347 6.432C21.0547 6.19067 21.4213 6 22.1173 6C22.8147 6 23.18 6.19067 23.4 6.432C23.648 6.704 24.0213 7.37867 24.0213 8.95867ZM26.0213 8.95867C26.0213 12.6773 24.2747 13.916 22.1173 13.916C19.9613 13.916 18.2133 12.676 18.2133 8.95867C18.2133 5.23867 19.9613 4 22.1173 4C24.2733 4 26.0213 5.24 26.0213 8.95867ZM19.7213 28C19.9987 27.3667 20 26.68 20 26H28V24.6667C28 23.352 27.9933 22.9267 27.9427 22.604C27.7886 21.6304 27.3302 20.7305 26.6332 20.0335C25.9361 19.3365 25.0363 18.8781 24.0627 18.724C23.74 18.6733 23.316 18.6667 22 18.6667C20.6853 18.6667 20.26 18.6733 19.9373 18.724C19.5663 18.7824 19.2037 18.8853 18.8573 19.0307C18.5183 18.4381 18.1106 17.8877 17.6427 17.3907C18.2654 17.0743 18.934 16.8578 19.624 16.7493C20.1427 16.6667 20.7613 16.6667 22 16.6667C23.2387 16.6667 23.8573 16.6667 24.376 16.7493C25.7664 16.9696 27.0514 17.6244 28.0468 18.6198C29.0423 19.6153 29.697 20.9003 29.9173 22.2907C30 22.8093 30 23.428 30 24.6667V26.1107C30 26.628 30 26.8867 29.9293 27.0947C29.8636 27.2885 29.7541 27.4647 29.6094 27.6094C29.4647 27.7541 29.2885 27.8636 29.0947 27.9293C28.8867 28 28.628 28 28.1107 28H19.7213ZM18 24.6667C18 23.428 18 22.8093 17.9173 22.2907C17.697 20.9003 17.0423 19.6153 16.0468 18.6198C15.0514 17.6244 13.7664 16.9696 12.376 16.7493C11.8587 16.6667 11.24 16.6667 10 16.6667C8.76 16.6667 8.14133 16.6667 7.624 16.7493C6.23359 16.9696 4.94859 17.6244 3.95316 18.6198C2.95773 19.6153 2.30295 20.9003 2.08267 22.2907C2 22.8093 2 23.428 2 24.6667V26.1107C2 26.628 2 26.8867 2.07067 27.0947C2.13639 27.2885 2.24586 27.4647 2.3906 27.6094C2.53535 27.7541 2.71147 27.8636 2.90533 27.9293C3.11333 28 3.372 28 3.88933 28H16.1107C16.628 28 16.8867 28 17.0947 27.9293C17.2885 27.8636 17.4647 27.7541 17.6094 27.6094C17.7541 27.4647 17.8636 27.2885 17.9293 27.0947C18 26.8867 18 26.628 18 26.1107V24.6667ZM16 26V24.6667C16 23.352 15.9933 22.9267 15.9427 22.604C15.7886 21.6304 15.3302 20.7305 14.6332 20.0335C13.9361 19.3365 13.0363 18.8781 12.0627 18.724C11.7413 18.6733 11.3173 18.6667 10 18.6667C8.68533 18.6667 8.26 18.6733 7.936 18.724C6.96261 18.8783 6.06306 19.3368 5.36629 20.0338C4.66952 20.7309 4.21131 21.6306 4.05733 22.604C4.00667 22.9267 4 23.3507 4 24.6667V26H16ZM12.0213 8.95867C12.0213 10.5373 11.648 11.212 11.4 11.484C11.18 11.7253 10.8147 11.9173 10.1173 11.9173C9.42 11.9173 9.05467 11.7253 8.83467 11.484C8.58667 11.212 8.21333 10.5373 8.21333 8.95867C8.21333 7.38 8.58667 6.70533 8.83467 6.432C9.05467 6.19067 9.42133 6 10.1173 6C10.8147 6 11.18 6.19067 11.4 6.432C11.648 6.704 12.0213 7.37867 12.0213 8.95867ZM14.0213 8.95867C14.0213 12.6773 12.2747 13.916 10.1173 13.916C7.96133 13.916 6.21333 12.676 6.21333 8.95867C6.21333 5.23867 7.96133 4 10.1173 4C12.2733 4 14.0213 5.24 14.0213 8.95867Z" fill="currentColor"/>
  </symbol>
  <symbol xmlns="http://www.w3.org/2000/svg" viewBox="0 0 32 32" fill="none" id="icon-mark">
    <path fill-rule="evenodd" clip-rule="evenodd" d="M16.0068 8.46667C14.6365 8.46667 13.3223 9.01102 12.3534 9.97996C11.3844 10.9489 10.8401 12.2631 10.8401 13.6333C10.8401 15.0036 11.3844 16.3178 12.3534 17.2867C13.3223 18.2557 14.6365 18.8 16.0068 18.8C17.377 18.8 18.6912 18.2557 19.6601 17.2867C20.6291 16.3178 21.1734 15.0036 21.1734 13.6333C21.1734 12.2631 20.6291 10.9489 19.6601 9.97996C18.6912 9.01102 17.377 8.46667 16.0068 8.46667ZM12.8401 13.6333C12.8401 12.7935 13.1737 11.988 13.7676 11.3942C14.3614 10.8003 15.1669 10.4667 16.0068 10.4667C16.8466 10.4667 17.6521 10.8003 18.2459 11.3942C18.8398 11.988 19.1734 12.7935 19.1734 13.6333C19.1734 14.4732 18.8398 15.2786 18.2459 15.8725C17.6521 16.4664 16.8466 16.8 16.0068 16.8C15.1669 16.8 14.3614 16.4664 13.7676 15.8725C13.1737 15.2786 12.8401 14.4732 12.8401 13.6333Z" fill="currentColor"/>
    <path fill-rule="evenodd" clip-rule="evenodd" d="M27.3334 13.42C27.3334 15.972 26.4534 18.3226 24.9721 20.196C21.9747 23.988 18.8787 27.4933 17.2227 29.328C16.7694 29.8293 16.5427 30.08 16.2561 30.156C16.0882 30.1996 15.912 30.1996 15.7441 30.156C15.4561 30.08 15.2307 29.8293 14.7774 29.328C13.1214 27.4933 10.0254 23.988 7.02808 20.1946C5.4983 18.2685 4.66598 15.881 4.66675 13.4213C4.66675 7.29598 9.74141 2.33331 16.0001 2.33331C22.2587 2.33331 27.3334 7.29731 27.3334 13.42ZM6.66675 13.42C6.66675 8.44265 10.8041 4.33331 16.0001 4.33331C21.1961 4.33331 25.3334 8.44265 25.3334 13.42C25.3334 15.5026 24.6161 17.42 23.4027 18.956C21.0242 21.9439 18.5555 24.8591 16.0001 27.6973C13.4447 24.8591 10.976 21.944 8.59741 18.956C7.34613 17.3822 6.66551 15.4306 6.66675 13.42Z" fill="currentColor"/>
  </symbol>
  <symbol xmlns="http://www.w3.org/2000/svg" viewBox="0 0 32 32" fill="none" id="icon-terminal">
    <path d="M12.2172 7.38135L11.0292 10.4107C10.8959 10.748 10.8292 10.9174 10.8706 11.0507C10.8942 11.128 10.9407 11.1963 11.0039 11.2467C11.1132 11.3334 11.2946 11.3334 11.6572 11.3334H15.4012C15.7026 11.3334 15.8546 11.3334 15.9826 11.2774C16.0581 11.2441 16.1268 11.1971 16.1852 11.1387C16.2839 11.04 16.3399 10.8987 16.4492 10.6187L17.6386 7.58935C17.7706 7.25202 17.8372 7.08269 17.7959 6.94935C17.7723 6.87205 17.7258 6.80371 17.6626 6.75335C17.5532 6.66669 17.3719 6.66669 17.0092 6.66669H13.2652C12.9639 6.66669 12.8119 6.66669 12.6839 6.72269C12.6083 6.75596 12.5396 6.80298 12.4812 6.86135C12.3826 6.96002 12.3266 7.10135 12.2172 7.38135Z" fill="currentColor"/>
    <path d="M9.57989 14.412L9.71989 14.0506C9.83056 13.768 9.88523 13.628 9.98389 13.528C10.0427 13.4694 10.1118 13.4224 10.1879 13.3893C10.3159 13.3333 10.4666 13.3333 10.7692 13.3333H12.4839C12.8452 13.3333 13.0266 13.3333 13.1359 13.42C13.1991 13.4703 13.2456 13.5387 13.2692 13.616C13.3106 13.7493 13.2452 13.9173 13.1132 14.256L12.9719 14.616C12.8626 14.8986 12.8079 15.0386 12.7079 15.1386C12.6495 15.197 12.5808 15.2441 12.5052 15.2773C12.3772 15.3333 12.2252 15.3333 11.9226 15.3333H10.2092C9.84656 15.3333 9.66656 15.3333 9.55589 15.2466C9.49267 15.1963 9.44618 15.128 9.42256 15.0506C9.38256 14.9173 9.44789 14.7493 9.57989 14.4106V14.412Z" fill="currentColor"/>
    <path fill-rule="evenodd" clip-rule="evenodd" d="M9.44 4.09869L4.232 17.4054C4.13867 17.648 4.09067 17.768 4.05867 17.8934C4.0401 17.968 4.02585 18.0437 4.016 18.12C4 18.2494 4 18.38 4 18.6387V27.0814C4 27.9414 4 28.372 4.19067 28.6894C4.30303 28.8752 4.45911 29.0309 4.64533 29.1427C4.96267 29.3347 5.392 29.3347 6.25333 29.3347H24.4133C25.2733 29.3347 25.704 29.3347 26.0213 29.144C26.2072 29.0317 26.3628 28.8756 26.4747 28.6894C26.6667 28.372 26.6667 27.9427 26.6667 27.0814V4.92002C26.6667 4.06002 26.6667 3.62935 26.476 3.31202C26.3636 3.12613 26.2076 2.97051 26.0213 2.85869C25.704 2.66669 25.2747 2.66669 24.4133 2.66669H11.5373C10.9333 2.66669 10.6307 2.66669 10.3747 2.77869C10.2231 2.84509 10.0852 2.93914 9.968 3.05602C9.77067 3.25335 9.66 3.53602 9.44 4.09869ZM6 18.3787L11.3333 4.66669C14.628 4.66669 17.924 4.66002 21.2187 4.66135L16.232 17.4054C16.1387 17.6467 16.0907 17.768 16.0587 17.8934C16.0401 17.968 16.0259 18.0437 16.016 18.12C16 18.248 16 18.3774 16 18.6374C16 21.54 15.992 24.4427 16 27.3454C12.6667 27.3454 9.33333 27.3427 6 27.332C5.992 24.4347 6.00133 21.276 6.00133 18.3774L6 18.3787ZM24.6667 27.3334C24.6867 19.7774 24.6867 12.2227 24.6667 4.66669C24.232 4.66669 23.8 4.66135 23.3653 4.66669C21.5987 9.15202 19.7587 13.888 18.0013 18.3774V27.3334C20.2053 27.3387 22.4467 27.3387 24.6667 27.3334Z" fill="currentColor"/>
  </symbol>
</svg>