<svg width="32" height="32" viewBox="0 0 32 32" fill="none" xmlns="http://www.w3.org/2000/svg">
  <path fill-rule="evenodd" clip-rule="evenodd" d="M2.66675 12.8306C2.66675 12.4306 2.66675 12.2306 2.70141 12.0453C2.77939 11.6371 2.98258 11.2633 3.28275 10.9759C3.41875 10.8453 3.58541 10.7359 3.92008 10.5186L14.7641 3.47061C15.2561 3.15061 15.5014 2.99061 15.7707 2.94394C15.9225 2.91745 16.0777 2.91745 16.2294 2.94394C16.4974 2.99061 16.7441 3.15061 17.2347 3.47061L28.0787 10.5186C28.4134 10.7359 28.5814 10.8453 28.7174 10.9759C29.0171 11.2635 29.2198 11.6373 29.2974 12.0453C29.3334 12.2319 29.3334 12.4306 29.3334 12.8306C29.3334 13.2986 29.3334 13.5333 29.2747 13.7239C29.2111 13.9326 29.0972 14.1224 28.943 14.2767C28.7889 14.4311 28.5993 14.5453 28.3907 14.6093C28.2001 14.6679 27.9641 14.6679 27.4961 14.6679H25.3334V23.3346C25.3334 23.5998 25.2281 23.8542 25.0405 24.0417C24.853 24.2293 24.5986 24.3346 24.3334 24.3346C24.0682 24.3346 23.8138 24.2293 23.6263 24.0417C23.4388 23.8542 23.3334 23.5998 23.3334 23.3346V14.6679H19.8494V23.3346C19.8494 23.5998 19.7441 23.8542 19.5565 24.0417C19.369 24.2293 19.1146 24.3346 18.8494 24.3346C18.5842 24.3346 18.3298 24.2293 18.1423 24.0417C17.9548 23.8542 17.8494 23.5998 17.8494 23.3346V14.6679H14.1334V23.3346C14.1334 23.5998 14.0281 23.8542 13.8405 24.0417C13.653 24.2293 13.3986 24.3346 13.1334 24.3346C12.8682 24.3346 12.6138 24.2293 12.4263 24.0417C12.2388 23.8542 12.1334 23.5998 12.1334 23.3346V14.6679H8.66675V23.3346C8.66675 23.5998 8.56139 23.8542 8.37386 24.0417C8.18632 24.2293 7.93196 24.3346 7.66675 24.3346C7.40153 24.3346 7.14718 24.2293 6.95964 24.0417C6.7721 23.8542 6.66675 23.5998 6.66675 23.3346V14.6679H4.50408C4.03475 14.6679 3.80008 14.6679 3.61075 14.6093C3.40198 14.5455 3.21207 14.4314 3.0577 14.277C2.90333 14.1226 2.78923 13.9327 2.72541 13.7239C2.66675 13.5333 2.66675 13.2986 2.66675 12.8306ZM27.3294 12.4213L27.3334 12.6679H4.66675L4.66941 12.4213C8.33342 10.0399 12.3334 7.42661 16.0001 5.05328C19.6681 7.42661 23.6667 10.0399 27.3294 12.4213Z" fill="#1E222E"/>
  <path d="M4.66675 28.0012C4.40153 28.0012 4.14718 27.8959 3.95964 27.7083C3.7721 27.5208 3.66675 27.2664 3.66675 27.0012C3.66675 26.736 3.7721 26.4817 3.95964 26.2941C4.14718 26.1066 4.40153 26.0012 4.66675 26.0012H27.3334C27.5986 26.0012 27.853 26.1066 28.0405 26.2941C28.2281 26.4817 28.3334 26.736 28.3334 27.0012C28.3334 27.2664 28.2281 27.5208 28.0405 27.7083C27.853 27.8959 27.5986 28.0012 27.3334 28.0012H4.66675Z" fill="#1E222E"/>
</svg>
