<svg width="24" height="24" viewBox="0 0 24 24" fill="none" xmlns="http://www.w3.org/2000/svg">
  <path fill-rule="evenodd" clip-rule="evenodd" d="M21.52 18.9471C21.17 20.0251 20.996 20.5641 20.537 21.0531C20.302 21.3031 19.938 21.5681 19.627 21.7141C19.02 22.0001 18.357 22.0001 17.033 22.0001H4.2C3.545 22.0001 3.218 22.0001 2.977 21.8531C2.84251 21.7707 2.72943 21.6576 2.647 21.5231C2.5 21.2831 2.5 20.9551 2.5 20.3001V11.0541C2.5 10.3991 2.5 10.0721 2.647 9.8311C2.72943 9.69661 2.84251 9.58353 2.977 9.5011C3.218 9.3541 3.545 9.3541 4.2 9.3541H6.5C9.537 9.3541 10.268 4.8271 10.444 2.6471C10.507 1.8631 10.741 1.3221 11.626 1.2821C12.481 1.2441 13.651 1.4761 14.5 2.7501C15.848 4.7721 15.52 6.4071 15.042 8.7931C15.013 8.9351 15.059 9.0001 15.207 9.0001H17.521C19.429 9.0001 20.383 9.0001 21.118 9.4651C21.5239 9.73057 21.8641 10.0848 22.113 10.5011C22.547 11.2541 22.513 12.1001 22.443 13.7911C22.3812 15.5448 22.0704 17.2808 21.52 18.9471ZM13.956 5.6771C13.977 6.4331 13.818 7.2671 13.57 8.5041C13.515 8.74678 13.5161 8.99882 13.5732 9.24101C13.6304 9.48321 13.742 9.70916 13.8997 9.90166C14.0574 10.0942 14.2569 10.2481 14.4831 10.3518C14.7093 10.4555 14.9562 10.5063 15.205 10.5001C15.977 10.4941 16.749 10.5001 17.521 10.5001C18.506 10.5001 19.131 10.5021 19.607 10.5501C20.051 10.5961 20.218 10.6701 20.316 10.7321C20.495 10.8461 20.707 11.0671 20.813 11.2511C20.981 11.5421 21.02 11.8681 20.944 13.7311C20.8881 15.3481 20.6019 16.9489 20.094 18.4851C19.715 19.6511 19.628 19.8301 19.444 20.0261C19.31 20.1593 19.1562 20.271 18.988 20.3571C18.753 20.4671 18.488 20.5001 17.033 20.5001C13.689 20.5001 10.344 20.5081 7 20.5051V10.8271C9.135 10.5911 10.318 8.8631 10.93 7.3941C11.603 5.7771 11.845 3.9221 11.938 2.7841C13.302 2.8741 13.923 4.4911 13.956 5.6771ZM6 10.8531V20.5041C5.333 20.5041 4.667 20.5021 4 20.5001C3.99 17.2851 3.99 14.0691 4 10.8541C4.667 10.8521 5.333 10.8531 6 10.8541V10.8531Z" fill="currentColor"/>
</svg>
