<svg width="32" height="32" viewBox="0 0 32 32" fill="none" xmlns="http://www.w3.org/2000/svg">
<path fill-rule="evenodd" clip-rule="evenodd" d="M24.0213 8.95867C24.0213 10.5373 23.648 11.212 23.4 11.484C23.18 11.7253 22.8147 11.9173 22.1173 11.9173C21.42 11.9173 21.0547 11.7253 20.8347 11.484C20.5867 11.212 20.2133 10.5373 20.2133 8.95867C20.2133 7.38 20.5867 6.70533 20.8347 6.432C21.0547 6.19067 21.4213 6 22.1173 6C22.8147 6 23.18 6.19067 23.4 6.432C23.648 6.704 24.0213 7.37867 24.0213 8.95867ZM26.0213 8.95867C26.0213 12.6773 24.2747 13.916 22.1173 13.916C19.9613 13.916 18.2133 12.676 18.2133 8.95867C18.2133 5.23867 19.9613 4 22.1173 4C24.2733 4 26.0213 5.24 26.0213 8.95867ZM19.7213 28C19.9987 27.3667 20 26.68 20 26H28V24.6667C28 23.352 27.9933 22.9267 27.9427 22.604C27.7886 21.6304 27.3302 20.7305 26.6332 20.0335C25.9361 19.3365 25.0363 18.8781 24.0627 18.724C23.74 18.6733 23.316 18.6667 22 18.6667C20.6853 18.6667 20.26 18.6733 19.9373 18.724C19.5663 18.7824 19.2037 18.8853 18.8573 19.0307C18.5183 18.4381 18.1106 17.8877 17.6427 17.3907C18.2654 17.0743 18.934 16.8578 19.624 16.7493C20.1427 16.6667 20.7613 16.6667 22 16.6667C23.2387 16.6667 23.8573 16.6667 24.376 16.7493C25.7664 16.9696 27.0514 17.6244 28.0468 18.6198C29.0423 19.6153 29.697 20.9003 29.9173 22.2907C30 22.8093 30 23.428 30 24.6667V26.1107C30 26.628 30 26.8867 29.9293 27.0947C29.8636 27.2885 29.7541 27.4647 29.6094 27.6094C29.4647 27.7541 29.2885 27.8636 29.0947 27.9293C28.8867 28 28.628 28 28.1107 28H19.7213ZM18 24.6667C18 23.428 18 22.8093 17.9173 22.2907C17.697 20.9003 17.0423 19.6153 16.0468 18.6198C15.0514 17.6244 13.7664 16.9696 12.376 16.7493C11.8587 16.6667 11.24 16.6667 10 16.6667C8.76 16.6667 8.14133 16.6667 7.624 16.7493C6.23359 16.9696 4.94859 17.6244 3.95316 18.6198C2.95773 19.6153 2.30295 20.9003 2.08267 22.2907C2 22.8093 2 23.428 2 24.6667V26.1107C2 26.628 2 26.8867 2.07067 27.0947C2.13639 27.2885 2.24586 27.4647 2.3906 27.6094C2.53535 27.7541 2.71147 27.8636 2.90533 27.9293C3.11333 28 3.372 28 3.88933 28H16.1107C16.628 28 16.8867 28 17.0947 27.9293C17.2885 27.8636 17.4647 27.7541 17.6094 27.6094C17.7541 27.4647 17.8636 27.2885 17.9293 27.0947C18 26.8867 18 26.628 18 26.1107V24.6667ZM16 26V24.6667C16 23.352 15.9933 22.9267 15.9427 22.604C15.7886 21.6304 15.3302 20.7305 14.6332 20.0335C13.9361 19.3365 13.0363 18.8781 12.0627 18.724C11.7413 18.6733 11.3173 18.6667 10 18.6667C8.68533 18.6667 8.26 18.6733 7.936 18.724C6.96261 18.8783 6.06306 19.3368 5.36629 20.0338C4.66952 20.7309 4.21131 21.6306 4.05733 22.604C4.00667 22.9267 4 23.3507 4 24.6667V26H16ZM12.0213 8.95867C12.0213 10.5373 11.648 11.212 11.4 11.484C11.18 11.7253 10.8147 11.9173 10.1173 11.9173C9.42 11.9173 9.05467 11.7253 8.83467 11.484C8.58667 11.212 8.21333 10.5373 8.21333 8.95867C8.21333 7.38 8.58667 6.70533 8.83467 6.432C9.05467 6.19067 9.42133 6 10.1173 6C10.8147 6 11.18 6.19067 11.4 6.432C11.648 6.704 12.0213 7.37867 12.0213 8.95867ZM14.0213 8.95867C14.0213 12.6773 12.2747 13.916 10.1173 13.916C7.96133 13.916 6.21333 12.676 6.21333 8.95867C6.21333 5.23867 7.96133 4 10.1173 4C12.2733 4 14.0213 5.24 14.0213 8.95867Z" fill="currentColor"/>
</svg>
