<svg width="32" height="32" viewBox="0 0 32 32" fill="none" xmlns="http://www.w3.org/2000/svg">
  <path fill-rule="evenodd" clip-rule="evenodd" d="M16.0001 29.3333C23.3641 29.3333 29.3334 23.364 29.3334 16C29.3334 8.63596 23.3641 2.66663 16.0001 2.66663C8.63608 2.66663 2.66675 8.63596 2.66675 16C2.66675 23.364 8.63608 29.3333 16.0001 29.3333ZM19.5427 26.768C21.701 26.0566 23.5958 24.7133 24.9813 22.9122C26.3669 21.111 27.1794 18.9351 27.3134 16.6666H21.4227C21.3534 20.2373 20.7427 23.0893 20.1294 25.0853C19.9281 25.7386 19.7267 26.3026 19.5427 26.768ZM17.9227 27.1706L18.0107 26.9786C18.2374 26.4653 18.5467 25.6973 18.8547 24.6933C19.4361 22.8053 20.0201 20.0866 20.0894 16.6666H11.9121C11.9801 20.0866 12.5654 22.8053 13.1454 24.6933C13.4024 25.5383 13.7137 26.3658 14.0774 27.1706C15.35 27.3882 16.6502 27.3882 17.9227 27.1706ZM12.4574 26.7693C10.2988 26.058 8.40372 24.7145 7.0179 22.9131C5.63208 21.1117 4.81946 18.9355 4.68541 16.6666H10.5787C10.6467 20.2373 11.2574 23.0893 11.8721 25.0853C12.0721 25.7386 12.2734 26.3026 12.4574 26.7693ZM11.9107 15.3333H20.0894C20.0201 11.9133 19.4361 9.19463 18.8547 7.30663C18.5977 6.46166 18.2864 5.63417 17.9227 4.82929C16.6502 4.61168 15.35 4.61168 14.0774 4.82929L13.9907 5.02129C13.7627 5.53463 13.4547 6.30263 13.1454 7.30663C12.5641 9.19463 11.9801 11.9133 11.9121 15.3333H11.9107ZM12.4574 5.23063C12.2747 5.69729 12.0721 6.25996 11.8707 6.91463C11.2574 8.91063 10.6467 11.7626 10.5774 15.3333H4.68675C4.82089 13.0643 5.63371 10.888 7.01978 9.08654C8.40586 7.28512 10.3012 5.94174 12.4601 5.23063H12.4574ZM19.5427 5.23063C19.7254 5.69729 19.9281 6.25996 20.1294 6.91463C20.7427 8.91063 21.3534 11.7626 21.4227 15.3333H27.3134C27.1794 13.0648 26.3669 10.8889 24.9813 9.08775C23.5958 7.2866 21.701 5.94194 19.5427 5.23063Z" fill="#1E222E"/>
</svg>
