<svg width="32" height="32" viewBox="0 0 32 32" fill="none" xmlns="http://www.w3.org/2000/svg">
  <path d="M12.2172 7.38135L11.0292 10.4107C10.8959 10.748 10.8292 10.9174 10.8706 11.0507C10.8942 11.128 10.9407 11.1963 11.0039 11.2467C11.1132 11.3334 11.2946 11.3334 11.6572 11.3334H15.4012C15.7026 11.3334 15.8546 11.3334 15.9826 11.2774C16.0581 11.2441 16.1268 11.1971 16.1852 11.1387C16.2839 11.04 16.3399 10.8987 16.4492 10.6187L17.6386 7.58935C17.7706 7.25202 17.8372 7.08269 17.7959 6.94935C17.7723 6.87205 17.7258 6.80371 17.6626 6.75335C17.5532 6.66669 17.3719 6.66669 17.0092 6.66669H13.2652C12.9639 6.66669 12.8119 6.66669 12.6839 6.72269C12.6083 6.75596 12.5396 6.80298 12.4812 6.86135C12.3826 6.96002 12.3266 7.10135 12.2172 7.38135Z" fill="currentColor"/>
  <path d="M9.57989 14.412L9.71989 14.0506C9.83056 13.768 9.88523 13.628 9.98389 13.528C10.0427 13.4694 10.1118 13.4224 10.1879 13.3893C10.3159 13.3333 10.4666 13.3333 10.7692 13.3333H12.4839C12.8452 13.3333 13.0266 13.3333 13.1359 13.42C13.1991 13.4703 13.2456 13.5387 13.2692 13.616C13.3106 13.7493 13.2452 13.9173 13.1132 14.256L12.9719 14.616C12.8626 14.8986 12.8079 15.0386 12.7079 15.1386C12.6495 15.197 12.5808 15.2441 12.5052 15.2773C12.3772 15.3333 12.2252 15.3333 11.9226 15.3333H10.2092C9.84656 15.3333 9.66656 15.3333 9.55589 15.2466C9.49267 15.1963 9.44618 15.128 9.42256 15.0506C9.38256 14.9173 9.44789 14.7493 9.57989 14.4106V14.412Z" fill="currentColor"/>
  <path fill-rule="evenodd" clip-rule="evenodd" d="M9.44 4.09869L4.232 17.4054C4.13867 17.648 4.09067 17.768 4.05867 17.8934C4.0401 17.968 4.02585 18.0437 4.016 18.12C4 18.2494 4 18.38 4 18.6387V27.0814C4 27.9414 4 28.372 4.19067 28.6894C4.30303 28.8752 4.45911 29.0309 4.64533 29.1427C4.96267 29.3347 5.392 29.3347 6.25333 29.3347H24.4133C25.2733 29.3347 25.704 29.3347 26.0213 29.144C26.2072 29.0317 26.3628 28.8756 26.4747 28.6894C26.6667 28.372 26.6667 27.9427 26.6667 27.0814V4.92002C26.6667 4.06002 26.6667 3.62935 26.476 3.31202C26.3636 3.12613 26.2076 2.97051 26.0213 2.85869C25.704 2.66669 25.2747 2.66669 24.4133 2.66669H11.5373C10.9333 2.66669 10.6307 2.66669 10.3747 2.77869C10.2231 2.84509 10.0852 2.93914 9.968 3.05602C9.77067 3.25335 9.66 3.53602 9.44 4.09869ZM6 18.3787L11.3333 4.66669C14.628 4.66669 17.924 4.66002 21.2187 4.66135L16.232 17.4054C16.1387 17.6467 16.0907 17.768 16.0587 17.8934C16.0401 17.968 16.0259 18.0437 16.016 18.12C16 18.248 16 18.3774 16 18.6374C16 21.54 15.992 24.4427 16 27.3454C12.6667 27.3454 9.33333 27.3427 6 27.332C5.992 24.4347 6.00133 21.276 6.00133 18.3774L6 18.3787ZM24.6667 27.3334C24.6867 19.7774 24.6867 12.2227 24.6667 4.66669C24.232 4.66669 23.8 4.66135 23.3653 4.66669C21.5987 9.15202 19.7587 13.888 18.0013 18.3774V27.3334C20.2053 27.3387 22.4467 27.3387 24.6667 27.3334Z" fill="currentColor"/>
</svg>