<svg width="32" height="32" viewBox="0 0 32 32" fill="none" xmlns="http://www.w3.org/2000/svg">
  <path d="M25.5294 6.73062C25.0344 5.90744 24.3344 5.22662 23.4979 4.75459C22.6613 4.28255 21.7166 4.03542 20.7561 4.03729C20.2576 3.20456 19.5498 2.51682 18.7032 2.04244C17.8565 1.56807 16.9004 1.32358 15.9299 1.33329C14.9594 1.34299 14.0084 1.60656 13.1714 2.09778C12.3343 2.589 11.6405 3.29076 11.1588 4.13329C10.6656 3.29584 9.96121 2.60252 9.11607 2.12264C8.27093 1.64277 7.31463 1.39315 6.34277 1.39873C5.37091 1.40432 4.41755 1.66492 3.57798 2.15448C2.73842 2.64405 2.04207 3.34542 1.55856 4.18848C1.07504 5.03154 0.821299 5.98676 0.822698 6.95863C0.824096 7.9305 1.08059 8.88499 1.56652 9.72665C2.05246 10.5683 2.75083 11.2677 3.5918 11.7548C4.43277 12.242 5.38688 12.4998 6.35875 12.5026C5.86963 13.352 5.61416 14.3158 5.61832 15.296C5.62248 16.2762 5.88611 17.2378 6.38242 18.083C6.87873 18.9282 7.59 19.627 8.44394 20.1082C9.29787 20.5894 10.264 20.8359 11.2441 20.8226C11.739 21.6685 12.4487 22.3685 13.3013 22.8517C14.1539 23.3349 15.119 23.5842 16.099 23.5744C17.0789 23.5645 18.0389 23.2958 18.8815 22.7954C19.7242 22.2951 20.4196 21.5809 20.8974 20.7253C21.8775 20.7168 22.8378 20.4494 23.6812 19.9502C24.5247 19.451 25.2211 18.7377 25.7001 17.8826C26.1789 17.0281 26.4228 16.062 26.4071 15.0826C26.3914 14.1032 26.1167 13.1454 25.6108 12.3066C26.0905 11.4528 26.3359 10.4872 26.3218 9.50784C26.3078 8.52852 26.0348 7.57035 25.5308 6.73062H25.5294ZM1.41875 20.8586C10.0014 20.7773 14.2587 27.0533 15.5934 29.5066C15.8467 29.9733 15.5281 30.5466 14.9974 30.592C5.06942 31.464 1.63475 24.4466 0.71075 21.844C0.671615 21.7317 0.660054 21.6117 0.677039 21.494C0.694025 21.3763 0.739061 21.2645 0.808347 21.1679C0.877633 21.0713 0.969136 20.9927 1.07514 20.9389C1.18114 20.8851 1.29854 20.8576 1.41742 20.8586H1.41875ZM30.5814 20.8586C31.0974 20.864 31.4627 21.3586 31.2894 21.844C30.3654 24.4466 26.9294 31.464 17.0028 30.592C16.8804 30.5821 16.7624 30.542 16.6594 30.4754C16.5563 30.4087 16.4715 30.3174 16.4124 30.2098C16.3533 30.1023 16.3219 29.9817 16.3209 29.8589C16.3199 29.7362 16.3494 29.6151 16.4067 29.5066C17.7401 27.0533 21.9988 20.7773 30.5814 20.8586ZM16.0001 8.39462C16.5394 8.38485 17.0752 8.48262 17.5762 8.68223C18.0773 8.88184 18.5336 9.17929 18.9184 9.5572C19.3032 9.93512 19.6089 10.3859 19.8175 10.8833C20.0262 11.3806 20.1337 11.9146 20.1337 12.454C20.1337 12.9933 20.0262 13.5273 19.8175 14.0246C19.6089 14.522 19.3032 14.9728 18.9184 15.3507C18.5336 15.7286 18.0773 16.0261 17.5762 16.2257C17.0752 16.4253 16.5394 16.5231 16.0001 16.5133C14.9417 16.4862 13.9357 16.0466 13.1967 15.2884C12.4577 14.5303 12.0441 13.5134 12.0441 12.4546C12.0441 11.3959 12.4577 10.379 13.1967 9.62079C13.9357 8.8626 14.9417 8.42175 16.0001 8.39462Z" fill="#1E222E"/>
</svg>
