<svg width="32" height="32" viewBox="0 0 32 32" fill="none" xmlns="http://www.w3.org/2000/svg">
  <path fill-rule="evenodd" clip-rule="evenodd" d="M15.9533 1.42529C14.9266 1.42529 14.0199 1.94796 13.4893 2.74129C13.0421 2.58423 12.5638 2.53665 12.0944 2.60252C11.6251 2.6684 11.1784 2.84582 10.7917 3.11991C10.405 3.39401 10.0897 3.75679 9.87215 4.17786C9.65459 4.59892 9.54112 5.06601 9.54126 5.53996V6.05996C9.11668 5.98992 8.68193 6.01312 8.26722 6.12796C7.8525 6.24281 7.46775 6.44654 7.13968 6.72501C6.8116 7.00348 6.54807 7.35002 6.36737 7.74056C6.18667 8.13111 6.09313 8.5563 6.09326 8.98663V20.8053C6.09378 23.0052 6.85483 25.1374 8.24745 26.8404C9.64007 28.5434 11.5786 29.7127 13.7347 30.15C15.8907 30.5873 18.1316 30.2659 20.0778 29.24C22.0239 28.2142 23.5556 26.5472 24.4133 24.5213L27.9199 16.2373C28.2444 15.5082 28.2668 14.6804 27.9823 13.9348C27.6978 13.1892 27.1296 12.5868 26.4019 12.2592C25.6743 11.9316 24.8465 11.9056 24.0997 12.1868C23.3529 12.4681 22.748 13.0337 22.4173 13.76L22.3679 13.864L22.3666 5.54129C22.3667 5.06734 22.2533 4.60026 22.0357 4.17919C21.8181 3.75812 21.5028 3.39534 21.1162 3.12125C20.7295 2.84715 20.2828 2.66973 19.8134 2.60386C19.3441 2.53798 18.8658 2.58557 18.4186 2.74263C18.1477 2.33729 17.781 2.0051 17.3509 1.77553C16.9209 1.54595 16.4408 1.42611 15.9533 1.42663V1.42529ZM12.5066 4.48263C13.0559 4.48263 13.5079 4.90263 13.5586 5.43863V15.1626C13.9786 15.0826 14.4253 15.008 14.8919 14.9426V4.39063C14.8919 4.25178 14.9193 4.11428 14.9724 3.986C15.0255 3.85772 15.1034 3.74116 15.2016 3.64298C15.2998 3.5448 15.4164 3.46691 15.5446 3.41378C15.6729 3.36064 15.8104 3.33329 15.9493 3.33329C16.0881 3.33329 16.2256 3.36064 16.3539 3.41378C16.4822 3.46691 16.5987 3.5448 16.6969 3.64298C16.7951 3.74116 16.873 3.85772 16.9261 3.986C16.9792 4.11428 17.0066 4.25178 17.0066 4.39063L17.0093 14.724C17.4413 14.6946 17.8853 14.6746 18.3426 14.6666V5.53996C18.3376 5.39804 18.3612 5.25656 18.412 5.12395C18.4628 4.99135 18.5398 4.87035 18.6385 4.76816C18.7371 4.66598 18.8553 4.58471 18.986 4.5292C19.1167 4.47369 19.2573 4.44509 19.3993 4.44509C19.5413 4.44509 19.6818 4.47369 19.8125 4.5292C19.9433 4.58471 20.0614 4.66598 20.1601 4.76816C20.2587 4.87035 20.3357 4.99135 20.3865 5.12395C20.4374 5.25656 20.461 5.39804 20.4559 5.53996V17.7413H20.4599V19.3333C20.4596 19.4849 20.5108 19.632 20.6053 19.7506C20.6998 19.8691 20.8319 19.9518 20.9797 19.9852C21.1276 20.0186 21.2824 20.0006 21.4186 19.9342C21.5549 19.8678 21.6645 19.757 21.7293 19.62L24.1386 14.5826C24.2595 14.3144 24.4821 14.1052 24.7572 14.0011C24.8935 13.9495 25.0386 13.9253 25.1842 13.9298C25.3298 13.9343 25.4731 13.9674 25.6059 14.0273C25.7387 14.0872 25.8585 14.1726 25.9582 14.2788C26.058 14.3849 26.1359 14.5097 26.1875 14.6459C26.2391 14.7822 26.2633 14.9273 26.2588 15.0729C26.2543 15.2185 26.2211 15.3618 26.1613 15.4946L22.6559 23.7773C21.9702 25.3986 20.7449 26.7328 19.1878 27.5539C17.6307 28.375 15.8375 28.6323 14.1124 28.2823C12.3872 27.9323 10.8361 26.9965 9.72207 25.6335C8.60805 24.2706 7.99962 22.5643 7.99993 20.804V8.98663C7.99993 8.7062 8.11133 8.43727 8.30961 8.23898C8.5079 8.04069 8.77684 7.92929 9.05726 7.92929C9.33768 7.92929 9.60662 8.04069 9.80491 8.23898C10.0032 8.43727 10.1146 8.7062 10.1146 8.98663V15.9773C10.1146 16.004 10.1146 16.0306 10.1186 16.0573C10.4786 15.9346 10.9239 15.7946 11.4479 15.6506V5.53996C11.4479 4.95596 11.9213 4.48263 12.5053 4.48263H12.5066Z" fill="#1E222E"/>
</svg>
