<svg width="32" height="32" viewBox="0 0 32 32" fill="none" xmlns="http://www.w3.org/2000/svg">
  <path fill-rule="evenodd" clip-rule="evenodd" d="M13.2733 24.6667V7.33337H18.7267V24.6667H20.7267V17.6774H26V24.6667H6V12.5054H11.2733V24.6667H13.2733ZM4.14533 11.2334C4 11.5187 4 11.892 4 12.6387V24.5334C4 25.28 4 25.6534 4.14533 25.9387C4.27316 26.1896 4.47713 26.3935 4.728 26.5214C5.01333 26.6667 5.38667 26.6667 6.13333 26.6667H25.8667C26.6133 26.6667 26.9867 26.6667 27.272 26.5214C27.5229 26.3935 27.7268 26.1896 27.8547 25.9387C28 25.6534 28 25.28 28 24.5334V17.8107C28 17.064 28 16.6907 27.8547 16.4054C27.7268 16.1545 27.5229 15.9505 27.272 15.8227C26.9867 15.676 26.6133 15.676 25.8667 15.676H20.728V7.46671C20.728 6.72004 20.728 6.34671 20.5813 6.06137C20.4539 5.81071 20.2504 5.60676 20 5.47871C19.7147 5.33337 19.34 5.33337 18.5933 5.33337H13.4067C12.66 5.33337 12.2867 5.33337 12.0013 5.47871C11.7505 5.60654 11.5465 5.8105 11.4187 6.06137C11.272 6.34671 11.272 6.72004 11.272 7.46671V10.5054H6.13333C5.38667 10.5054 5.01333 10.5054 4.728 10.6507C4.47713 10.7785 4.27316 10.9825 4.14533 11.2334Z" fill="white"/>
</svg>
