<svg width="32" height="32" viewBox="0 0 32 32" fill="none" xmlns="http://www.w3.org/2000/svg">
  <path fill-rule="evenodd" clip-rule="evenodd" d="M16.0001 14.6666C18.9467 14.6666 21.3334 13.1666 21.3334 8.66663C21.3334 4.16663 18.9467 2.66663 16.0001 2.66663C13.0534 2.66663 10.6667 4.16663 10.6667 8.66663C10.6667 13.1666 13.0534 14.6666 16.0001 14.6666ZM18.3774 11.92C18.8321 11.4786 19.3334 10.576 19.3334 8.66663C19.3334 6.75729 18.8321 5.85463 18.3774 5.41329C17.9107 4.95996 17.1587 4.66663 16.0001 4.66663C14.8414 4.66663 14.0894 4.95996 13.6227 5.41329C13.1681 5.85463 12.6667 6.75729 12.6667 8.66663C12.6667 10.576 13.1681 11.4786 13.6227 11.92C14.0894 12.3733 14.8414 12.6666 16.0001 12.6666C17.1587 12.6666 17.9107 12.3733 18.3774 11.92Z" fill="#1E222E"/>
  <path fill-rule="evenodd" clip-rule="evenodd" d="M6.20808 18.9706C12.0081 16.1213 19.9921 16.1213 25.7921 18.9706C27.0894 19.608 28.1814 20.408 28.8161 21.74C29.3334 22.828 29.3334 23.7533 29.3334 25.6026C29.3334 26.6 29.3334 27.0986 29.0801 27.448C28.9971 27.5628 28.8962 27.6636 28.7814 27.7466C28.4321 28 27.9334 28 26.9361 28H5.06408C4.06675 28 3.56808 28 3.21875 27.7466C3.10394 27.6636 3.00312 27.5628 2.92008 27.448C2.66675 27.0986 2.66675 26.6 2.66675 25.6026C2.66675 23.7533 2.66675 22.828 3.18408 21.74C3.81875 20.408 4.91075 19.608 6.20808 18.9706ZM14.9681 18.856C12.1734 18.9826 9.42408 19.6186 7.08941 20.7653C6.18941 21.208 5.44141 21.6506 4.99075 22.6C4.70008 23.208 4.66675 23.6586 4.66675 25.6026V25.9986C8.00808 26.02 11.3494 26.0319 14.6907 26.0346L14.9681 18.856ZM17.0334 18.856L17.3094 26.0346C20.6507 26.0319 23.9921 26.0213 27.3321 25.9986L27.3334 25.6026C27.3334 23.6586 27.3001 23.208 27.0094 22.6C26.5587 21.6506 25.8094 21.208 24.9107 20.7653C22.5761 19.6186 19.8267 18.9826 17.0334 18.856Z" fill="#1E222E"/>
</svg>
