<svg width="24" height="24" viewBox="0 0 24 24" fill="none" xmlns="http://www.w3.org/2000/svg">
  <path fill="currentColor" fill-rule="evenodd" clip-rule="evenodd" d="M18.7179 5.28282C18.8584 5.42344 18.9373 5.61407 18.9373 5.81282C18.9373 6.01157 18.8584 6.20219 18.7179 6.34282L13.0599 11.9998L18.7169 17.6568C18.8535 17.7983 18.929 17.9878 18.9272 18.1845C18.9254 18.3811 18.8464 18.5692 18.7073 18.7082C18.5682 18.8472 18.38 18.926 18.1834 18.9276C17.9867 18.9292 17.7973 18.8535 17.6559 18.7168L11.9999 13.0618L6.34293 18.7188C6.27371 18.7904 6.19092 18.8475 6.0994 18.8868C6.00788 18.926 5.90946 18.9467 5.80987 18.9475C5.71029 18.9483 5.61154 18.9293 5.51938 18.8915C5.42723 18.8538 5.34352 18.7981 5.27313 18.7276C5.20274 18.6572 5.14709 18.5734 5.10943 18.4812C5.07176 18.389 5.05283 18.2902 5.05374 18.1907C5.05465 18.0911 5.07539 17.9927 5.11474 17.9012C5.15409 17.8097 5.21126 17.727 5.28293 17.6578L10.9379 11.9998L5.28193 6.34282C5.14537 6.2013 5.06987 6.01181 5.07167 5.81517C5.07347 5.61852 5.15243 5.43044 5.29156 5.29145C5.43068 5.15246 5.61883 5.07367 5.81548 5.07206C6.01212 5.07044 6.20154 5.14613 6.34293 5.28282L11.9999 10.9388L17.6569 5.28282C17.7976 5.14237 17.9882 5.06348 18.1869 5.06348C18.3857 5.06348 18.5763 5.14237 18.7169 5.28282H18.7179Z"/>
</svg>
