<svg width="32" height="32" viewBox="0 0 32 32" fill="none" xmlns="http://www.w3.org/2000/svg">
  <path fill-rule="evenodd" clip-rule="evenodd" d="M16.0068 8.46667C14.6365 8.46667 13.3223 9.01102 12.3534 9.97996C11.3844 10.9489 10.8401 12.2631 10.8401 13.6333C10.8401 15.0036 11.3844 16.3178 12.3534 17.2867C13.3223 18.2557 14.6365 18.8 16.0068 18.8C17.377 18.8 18.6912 18.2557 19.6601 17.2867C20.6291 16.3178 21.1734 15.0036 21.1734 13.6333C21.1734 12.2631 20.6291 10.9489 19.6601 9.97996C18.6912 9.01102 17.377 8.46667 16.0068 8.46667ZM12.8401 13.6333C12.8401 12.7935 13.1737 11.988 13.7676 11.3942C14.3614 10.8003 15.1669 10.4667 16.0068 10.4667C16.8466 10.4667 17.6521 10.8003 18.2459 11.3942C18.8398 11.988 19.1734 12.7935 19.1734 13.6333C19.1734 14.4732 18.8398 15.2786 18.2459 15.8725C17.6521 16.4664 16.8466 16.8 16.0068 16.8C15.1669 16.8 14.3614 16.4664 13.7676 15.8725C13.1737 15.2786 12.8401 14.4732 12.8401 13.6333Z" fill="currentColor"/>
  <path fill-rule="evenodd" clip-rule="evenodd" d="M27.3334 13.42C27.3334 15.972 26.4534 18.3226 24.9721 20.196C21.9747 23.988 18.8787 27.4933 17.2227 29.328C16.7694 29.8293 16.5427 30.08 16.2561 30.156C16.0882 30.1996 15.912 30.1996 15.7441 30.156C15.4561 30.08 15.2307 29.8293 14.7774 29.328C13.1214 27.4933 10.0254 23.988 7.02808 20.1946C5.4983 18.2685 4.66598 15.881 4.66675 13.4213C4.66675 7.29598 9.74141 2.33331 16.0001 2.33331C22.2587 2.33331 27.3334 7.29731 27.3334 13.42ZM6.66675 13.42C6.66675 8.44265 10.8041 4.33331 16.0001 4.33331C21.1961 4.33331 25.3334 8.44265 25.3334 13.42C25.3334 15.5026 24.6161 17.42 23.4027 18.956C21.0242 21.9439 18.5555 24.8591 16.0001 27.6973C13.4447 24.8591 10.976 21.944 8.59741 18.956C7.34613 17.3822 6.66551 15.4306 6.66675 13.42Z" fill="currentColor"/>
</svg>
