<svg width="32" height="32" viewBox="0 0 32 32" fill="none" xmlns="http://www.w3.org/2000/svg">
  <path fill-rule="evenodd" clip-rule="evenodd" d="M4 8.13193C4 7.4346 4 7.0866 4.13067 6.81193C4.22733 6.60901 4.37476 6.43448 4.55867 6.30526C4.80533 6.12793 5.16267 6.06526 5.87467 5.94126C9.24133 5.3546 11.3347 4.5906 14.9093 2.61326C15.3333 2.37993 15.5453 2.2626 15.7587 2.2226C15.9181 2.1924 16.0819 2.1924 16.2413 2.2226C16.4547 2.2626 16.668 2.37993 17.0907 2.61326C20.664 4.5906 22.7573 5.3546 26.1253 5.94126C26.8373 6.06526 27.1947 6.12793 27.4413 6.30393C27.628 6.43726 27.7693 6.60526 27.868 6.81193C28 7.0866 28 7.4346 28 8.13193V11.8826C28 25.1013 18.896 29.2159 16.5467 30.0573C16.3893 30.1146 16.3107 30.1426 16.1653 30.1613C16.0554 30.1716 15.9446 30.1716 15.8347 30.1613C15.7032 30.1433 15.5745 30.1083 15.452 30.0573C13.104 29.2159 4 25.1013 4 11.8826V8.13193ZM26 11.8826C26 17.9799 23.92 21.8319 21.684 24.2559C19.5 26.6239 17.0707 27.7279 16 28.1279C14.928 27.7279 12.5 26.6239 10.316 24.2559C8.08 21.8319 6 17.9799 6 11.8826C6 10.5719 5.99733 9.26126 6 7.94926C9.62 7.31993 12.2667 6.36393 16 4.29726C19.7347 6.36393 22.38 7.32126 26 7.95059C26.0027 9.26259 26 10.5733 26 11.8839V11.8826ZM17.4667 14.1093V12.3799C17.4667 11.9909 17.3121 11.6179 17.0371 11.3428C16.762 11.0678 16.389 10.9133 16 10.9133C15.611 10.9133 15.238 11.0678 14.9629 11.3428C14.6879 11.6179 14.5333 11.9909 14.5333 12.3799V14.1066H17.4667V14.1093ZM19.4667 14.1479V12.3813C19.4667 11.4618 19.1014 10.5801 18.4513 9.92996C17.8012 9.27983 16.9194 8.91459 16 8.91459C15.0806 8.91459 14.1988 9.27983 13.5487 9.92996C12.8986 10.5801 12.5333 11.4618 12.5333 12.3813V14.1373C12.204 14.1666 11.9573 14.2226 11.7453 14.3333C11.3798 14.5231 11.0818 14.8211 10.892 15.1866C10.6667 15.6199 10.6667 16.1893 10.6667 17.3279V19.2973C10.6667 20.0573 10.6667 20.4359 10.8173 20.7253C10.9436 20.969 11.1419 21.1678 11.3853 21.2946C11.6747 21.4439 12.0547 21.4439 12.8133 21.4439H19.084C19.844 21.4439 20.2227 21.4439 20.512 21.2946C20.7554 21.1678 20.9538 20.969 21.08 20.7253C21.2307 20.4373 21.2307 20.0573 21.2307 19.2986V17.3279C21.2307 16.1893 21.2307 15.6199 21.0053 15.1866C20.8155 14.8211 20.5175 14.5231 20.152 14.3333C19.9372 14.2291 19.7047 14.1662 19.4667 14.1479Z" fill="#1E222E"/>
</svg>
