<svg width="238" height="12" viewBox="0 0 238 12" fill="none" xmlns="http://www.w3.org/2000/svg">
<g clip-path="url(#clip0_6350_2931)">
<path d="M11.1804 0.25708V1.44445H1.66306V11.0394H0.0898438V0.25708H11.1804Z" fill="black"/>
<path d="M1.75273 11.1241H0V0.17627H11.27V1.52848H1.75273V11.1241ZM0.174802 10.9586H1.57322V1.36301H11.0946V0.341743H0.176147V10.9586H0.174802ZM17.8493 0.257112L24.9631 11.0401H23.289L21.1484 7.78995H12.4419L10.3039 11.0401H8.74684L15.8579 0.257112H17.8493ZM20.4014 6.66259L16.8032 1.19753L13.1895 6.66574H20.4014V6.66259Z" fill="black"/>
<path d="M25.1203 11.124H23.2372L21.0959 7.87385H12.4868L10.3489 11.124H8.58203L15.8088 0.1768H17.8976L17.9232 0.215958L25.1203 11.124ZM23.334 10.9585H24.803L17.7955 0.341642H15.9062L8.90407 10.9585H10.2568L12.3941 7.70838H21.1974L23.3387 10.9585H23.334ZM20.5573 6.75091H13.0287L16.8024 1.03891L20.558 6.75027L20.5573 6.75091ZM13.3461 6.5848H20.24L16.8024 1.35217L13.3461 6.58164V6.5848ZM27.3491 8.16627C28.01 9.55701 29.9005 10.0711 33.3495 10.0711C37.064 10.0711 39.0037 9.43006 39.0037 8.11638V7.78922C39.0037 6.66248 37.6093 6.05301 35.0236 6.05301H29.7997V4.95785H35.0236C37.1797 4.95785 38.6561 4.38059 38.6561 3.23996V2.97469C38.6561 1.59785 36.6492 1.21069 33.3495 1.21069C30.0504 1.21069 27.9952 1.64775 27.5467 2.97469H25.9695C26.5524 0.884169 28.9257 0.0883789 33.3535 0.0883789C38.0127 0.0883789 40.2367 1.07364 40.2367 3.02522C40.2367 4.33891 39.1079 5.16627 37.651 5.40185C39.2914 5.68354 40.5688 6.40164 40.5688 7.96543C40.5688 10.1696 38.1478 11.2155 33.3569 11.2155C28.929 11.2155 26.4925 10.3566 25.794 8.16943H27.3524L27.3491 8.16627Z" fill="black"/>
<path d="M33.3543 11.2964C28.751 11.2964 26.3931 10.3383 25.7094 8.19032L25.6758 8.08484H27.409L27.4319 8.13411C28.0517 9.43705 29.8233 9.98969 33.3543 9.98969C36.8853 9.98969 38.9218 9.35937 38.9218 8.12021V7.79242C38.9218 6.35621 36.4819 6.14084 35.0317 6.14084H29.7231V4.88021H35.0324C37.2524 4.88021 38.5755 4.26758 38.5755 3.24316V2.97916C38.5755 1.79937 37.0131 1.296 33.3583 1.296C29.7043 1.296 28.0417 1.80632 27.6376 3.00379L27.6194 3.06H25.8667L25.8963 2.95453C26.4711 0.883579 28.7019 0 33.3617 0C38.0209 0 40.3309 0.989684 40.3309 3.02147C40.3309 4.16589 39.4791 5.04947 38.0814 5.39432C39.7958 5.78211 40.6631 6.64484 40.6631 7.95853C40.6631 10.2006 38.2757 11.2933 33.3617 11.2933L33.3543 11.2964ZM25.9145 8.25032C26.617 10.2398 28.9224 11.1303 33.3543 11.1303C38.1479 11.1303 40.4802 10.0952 40.4802 7.96484C40.4802 6.64105 39.5235 5.80674 37.6329 5.48274L37.1394 5.39811L37.6329 5.31726C39.1833 5.06716 40.1474 4.19053 40.1474 3.02463C40.1474 1.10211 37.924 0.169263 33.3543 0.169263C28.7846 0.169263 26.6883 0.985895 26.0899 2.89453H27.4883C27.9549 1.64084 29.6667 1.13053 33.3543 1.13053C37.0426 1.13053 38.7503 1.68316 38.7503 2.97916V3.24316C38.7503 4.36989 37.36 5.04568 35.0284 5.04568H29.8939V5.97221H35.0284C38.3913 5.97221 39.0979 6.9619 39.0979 7.78926V8.11642C39.0979 9.46863 37.1657 10.152 33.3543 10.152C29.7857 10.152 27.9697 9.58105 27.2934 8.24653H25.9111L25.9145 8.25032ZM57.2437 0.563368V11.3457H55.6678V1.75326H45.0882V11.3457H43.5123V0.563368H57.2437Z" fill="black"/>
<path d="M57.3301 11.4303H55.5774V1.83475H45.1746V11.4303H43.4219V0.482544H57.3301V11.4303ZM55.7528 11.2649H57.1506V0.648018H43.5974V11.2649H44.9951V1.66928H55.7495V11.2649H55.7528ZM70.7737 0.563386C73.6102 0.563386 74.8547 1.89097 74.8547 4.0497C74.8547 6.20781 73.6102 7.56381 70.7737 7.56381H62.6656V11.3457H61.0883V0.563386H70.7737ZM73.2963 3.92275C73.2963 2.51749 72.515 1.70402 70.6433 1.70402H62.6656V6.42254H70.6433C72.515 6.42254 73.2963 5.60907 73.2963 4.23602V3.92275Z" fill="black"/>
<path d="M62.7521 11.4304H61V0.482565H70.7708C73.499 0.482565 74.9378 1.71541 74.9378 4.04972C74.9378 6.38467 73.495 7.64846 70.7708 7.64846H62.7521V11.4304ZM61.1755 11.2649H62.5725V7.48299H70.7708C73.3827 7.48299 74.7616 6.29625 74.7616 4.04972C74.7616 1.8032 73.4204 0.648039 70.7708 0.648039H61.1755V11.2649ZM70.6363 6.50783H62.5725V1.6232H70.6363C72.4563 1.6232 73.3794 2.39751 73.3794 3.92593V4.2392C73.3794 5.74678 72.4563 6.51035 70.6363 6.51035V6.50783ZM62.7487 6.34235H70.6363C72.3628 6.34235 73.1999 5.65204 73.1999 4.23667V3.92341C73.1999 2.48656 72.3595 1.78551 70.6363 1.78551H62.7487V6.34235ZM85.6317 0.394775C91.2697 0.394775 94.2218 1.94088 94.2218 5.99056C94.2218 10.0396 91.2697 11.5226 85.6317 11.5226C79.9929 11.5226 77.0408 9.9133 77.0408 5.98993C77.0408 2.06783 79.9929 0.394775 85.6317 0.394775ZM92.6641 5.55035C92.6641 2.75435 90.2908 1.54993 85.6317 1.54993C80.9718 1.54993 78.5992 2.7373 78.5992 5.55035V6.34614C78.5992 9.11057 80.953 10.3605 85.6317 10.3605C90.3096 10.3605 92.6641 9.12446 92.6641 6.34614V5.55035Z" fill="black"/>
<path d="M85.6313 11.6034C79.7129 11.6034 76.9551 9.81795 76.9551 5.98679C76.9551 2.15563 79.6302 0.310791 85.6313 0.310791C91.6324 0.310791 94.3082 2.06027 94.3082 5.98679C94.3082 9.91332 91.5504 11.6034 85.6313 11.6034ZM85.6313 0.476265C79.7539 0.476265 77.1306 2.17711 77.1306 5.98679C77.1306 9.79711 79.8326 11.4342 85.6313 11.4342C91.4307 11.4342 94.1328 9.70174 94.1328 5.98679C94.1328 2.27184 91.5134 0.476265 85.6313 0.476265ZM85.6313 10.4451C80.8411 10.4451 78.5135 9.103 78.5135 6.34616V5.55037C78.5135 2.76511 80.7738 1.46532 85.6313 1.46532C90.4895 1.46532 92.7498 2.76132 92.7498 5.55037V6.34616C92.7498 9.103 90.4222 10.4451 85.6313 10.4451ZM85.6313 1.63079C80.8935 1.63079 78.689 2.87753 78.689 5.54658V6.34237C78.689 9.02595 80.8935 10.2758 85.6313 10.2758C90.3698 10.2758 92.5743 9.02532 92.5743 6.34237V5.54658C92.5743 2.87437 90.3698 1.63079 85.6313 1.63079ZM111.901 1.5809L106.214 9.70806H104.487L98.8 1.61311V11.3457H97.3727V0.563423H99.678L105.399 8.72216L111.135 0.563423H113.455V11.3457H111.897V1.58153L111.901 1.5809Z" fill="black"/>
<path d="M113.545 11.4303H111.812V1.85994L106.259 9.79257H104.439L104.413 9.75468L98.8867 1.89152V11.4303H97.2832V0.483101H99.7237L105.396 8.5711L111.091 0.483101H113.549V11.4303H113.545ZM111.987 11.2648H113.37V0.647943H111.184L105.399 8.87426L105.325 8.76815L99.6303 0.648575H97.4587V11.2654H98.7072V1.33447L104.529 9.62331H106.158L111.983 1.30289V11.2642H111.987V11.2648ZM129.717 0.390259V1.49994H118.309V4.89089H126.649C129.287 4.89089 130.479 6.03152 130.479 8.01721C130.479 10.0035 129.283 11.1726 126.649 11.1726H116.732V0.390259H129.717ZM128.906 7.81321C128.906 6.76731 128.177 5.98605 126.321 5.98605H118.313V10.0812H126.321C128.177 10.0812 128.906 9.317 128.906 8.22184V7.81321Z" fill="black"/>
<path d="M126.65 11.2578H116.646V0.310059H129.807V1.58522H118.399V4.81069H126.653C129.254 4.81069 130.574 5.89132 130.574 8.01848C130.574 10.145 129.217 11.2585 126.653 11.2585L126.65 11.2578ZM116.822 11.0924H126.65C129.135 11.0924 130.394 10.0572 130.394 8.01848C130.394 5.97974 129.135 4.97616 126.65 4.97616H118.22V1.41974H129.628V0.475532H116.819V11.0924H116.822ZM126.317 10.1665H118.22V5.90522H126.317C128.645 5.90522 128.992 7.10206 128.992 7.81701V8.22185C128.992 9.10922 128.529 10.1665 126.317 10.1665ZM118.395 10.001H126.317C127.95 10.001 128.817 9.38837 128.817 8.22627V7.82143C128.817 6.68016 127.954 6.07448 126.317 6.07448H118.395V10.001ZM140.729 0.390269L147.844 11.1726H146.17L144.029 7.92248H135.322L133.185 11.1726H131.626L138.737 0.390269H140.729ZM143.282 6.79574L139.683 1.32627L136.07 6.79511H143.282V6.79574Z" fill="black"/>
<path d="M148 11.2578H146.116L143.975 8.00774H135.366L133.228 11.2578H131.461L138.688 0.310059H140.777L140.803 0.349216L148 11.2578ZM146.214 11.0924H147.682L140.68 0.475532H138.789L131.786 11.0924H133.139L135.276 7.84227H144.08L146.221 11.0924H146.214ZM143.437 6.8848H135.908L139.682 1.1728L143.437 6.8848ZM136.226 6.71932H143.12L139.678 1.48985L136.222 6.71932H136.226ZM151.672 0.390269V4.87637H162.517V0.390269H164.074V11.1726H162.517V6.06311H151.672V11.1726H150.096V0.390269H151.672Z" fill="black"/>
<path d="M164.164 11.2579H162.431V6.1484H151.762V11.2579H150.01V0.31008H151.762V4.79366H162.431V0.309448H164.164V11.2572V11.2579ZM162.606 11.0924H163.989V0.475554H162.606V4.96166H151.583V0.475554H150.185V11.0924H151.583V5.98292H162.606V11.0924ZM182.052 0.39029L174.425 5.56292L182.253 11.1726H179.933L173.05 6.23555H169.518V11.1726H167.942V0.39029H169.518V5.04945H173.001L179.877 0.39029H182.052Z" fill="black"/>
<path d="M182.513 11.2578H179.901L179.879 11.2402L173.022 6.32143H169.606V11.2578H167.854V0.310059H169.606V4.96543H172.973L179.852 0.31069H182.326L174.572 5.56732L182.513 11.2578ZM179.961 11.0924H181.99L174.277 5.56416L181.777 0.475532H179.904L173.022 5.1309H169.423V0.476164H168.026V11.093H169.423V6.15532H173.074L173.096 6.17237L179.953 11.0924H179.961Z" fill="black"/>
<path d="M186.762 11.2049C187.398 11.2049 187.913 10.7192 187.913 10.1204C187.913 9.52169 187.398 9.03601 186.762 9.03601C186.127 9.03601 185.611 9.52169 185.611 10.1204C185.611 10.7192 186.127 11.2049 186.762 11.2049Z" fill="black"/>
<path d="M189.273 1.49995V0.310059H203.85V1.4968H197.348V11.0924H195.771V1.49932H189.27L189.273 1.49995Z" fill="black"/>
<path d="M197.438 11.1765H195.685V1.58095H189.184V0.22937H203.936V1.58095H197.434V11.1765H197.438ZM195.861 11.0111H197.258V1.41548H203.76V0.394212H189.359V1.41548H195.861V11.0111ZM218.939 0.309581V1.43695H207.927V5.04579H216.45V6.15548H207.927V9.96895H219.021V11.0957H206.354V0.309581H218.939Z" fill="black"/>
<path d="M219.11 11.1764H206.264V0.228638H219.024V1.52085H208.012V4.96106H216.536V6.23622H208.012V9.88422H219.107V11.1764H219.11ZM206.443 11.011H218.935V10.0528H207.84V6.0739H216.364V5.13032H207.84V1.35222H218.853V0.394111H206.443V11.011ZM229.535 6.37327L223.316 11.0924H221.344L228.492 5.66906L221.512 0.310111H223.668L229.669 4.91937L235.737 0.30948H237.71L230.711 5.60527L237.875 11.0918H235.704L229.535 6.37327Z" fill="black"/>
</g>
<defs>
<clipPath id="clip0_6350_2931">
<rect width="238" height="12" fill="white"/>
</clipPath>
</defs>
</svg>
