<svg width="278" height="14" viewBox="0 0 278 14" fill="none" xmlns="http://www.w3.org/2000/svg">
<g clip-path="url(#clip0_6350_3025)">
<path d="M13.06 0.299927V1.68519H1.9431V12.8793H0.105469V0.299927H13.06Z" fill="black"/>
<path d="M2.04731 12.978H0V0.205566H13.1642V1.78315H2.04731V12.978ZM0.204181 12.7849H1.83763V1.59009H12.9592V0.398619H0.205751V12.7849H0.204181ZM20.8492 0.299882L29.1586 12.88H27.2032L24.7027 9.0882H14.533L12.0357 12.88H10.2169L18.5231 0.299882H20.8492ZM23.8303 7.77293L19.6273 1.39704L15.4062 7.77662H23.8303V7.77293Z" fill="black"/>
<path d="M29.3413 12.9779H27.1416L24.6404 9.18614H14.5845L12.0872 12.9779H10.0234L18.4647 0.206246H20.9047L20.9345 0.251931L29.3413 12.9779ZM27.2547 12.7849H28.9706L20.7853 0.398562H18.5786L10.3996 12.7849H11.9796L14.4762 8.99309H24.759L27.2602 12.7849H27.2547ZM24.0114 7.87604H15.2175L19.6254 1.21204L24.0122 7.8753L24.0114 7.87604ZM15.5881 7.68225H23.6407L19.6254 1.57751L15.5881 7.67856V7.68225ZM31.9446 9.5273C32.7166 11.1498 34.9249 11.7496 38.9535 11.7496C43.2923 11.7496 45.558 11.0017 45.558 9.46909V9.0874C45.558 7.77288 43.9292 7.06183 40.9089 7.06183H34.8071V5.78414H40.9089C43.4274 5.78414 45.152 5.11067 45.152 3.77993V3.47046C45.152 1.86414 42.8078 1.41246 38.9535 1.41246C35.1 1.41246 32.6993 1.92235 32.1755 3.47046H30.3331C31.014 1.03151 33.7862 0.103088 38.9582 0.103088C44.4004 0.103088 46.9982 1.25256 46.9982 3.5294C46.9982 5.06204 45.6797 6.0273 43.9779 6.30214C45.8941 6.63077 47.3862 7.46856 47.3862 9.29298C47.3862 11.8646 44.5583 13.0848 38.9621 13.0848C33.7901 13.0848 30.9441 12.0827 30.1282 9.53098H31.9485L31.9446 9.5273Z" fill="black"/>
<path d="M38.9593 13.1792C33.5822 13.1792 30.8282 12.0614 30.0295 9.55537L29.9902 9.43232H32.0148L32.0415 9.48979C32.7655 11.0099 34.8348 11.6546 38.9593 11.6546C43.0837 11.6546 45.4624 10.9193 45.4624 9.47358V9.09116C45.4624 7.41558 42.6125 7.16432 40.9186 7.16432H34.7178V5.69358H40.9194C43.5125 5.69358 45.058 4.97884 45.058 3.78368V3.47568C45.058 2.09926 43.2329 1.512 38.964 1.512C34.6958 1.512 32.7537 2.10737 32.2818 3.50442L32.2606 3.57H30.2133L30.2478 3.44695C30.9193 1.03084 33.5249 0 38.9679 0C44.4101 0 47.1084 1.15463 47.1084 3.52505C47.1084 4.86021 46.1134 5.89105 44.4808 6.29337C46.4833 6.74579 47.4964 7.75232 47.4964 9.28495C47.4964 11.9007 44.7077 13.1755 38.9679 13.1755L38.9593 13.1792ZM30.269 9.62537C31.0897 11.9464 33.7825 12.9854 38.9593 12.9854C44.5585 12.9854 47.2828 11.7777 47.2828 9.29232C47.2828 7.74789 46.1653 6.77453 43.957 6.39653L43.3806 6.29779L43.957 6.20347C45.7679 5.91168 46.894 4.88895 46.894 3.52874C46.894 1.28579 44.297 0.197474 38.9593 0.197474C33.6215 0.197474 31.1729 1.15021 30.474 3.37695H32.1074C32.6524 1.91432 34.6518 1.31895 38.9593 1.31895C43.2675 1.31895 45.2622 1.96368 45.2622 3.47568V3.78368C45.2622 5.09821 43.6382 5.88663 40.9147 5.88663H34.9173V6.96758H40.9147C44.8428 6.96758 45.6682 8.12221 45.6682 9.08747V9.46916C45.6682 11.0467 43.4112 11.844 38.9593 11.844C34.7908 11.844 32.6697 11.1779 31.8797 9.62095H30.2651L30.269 9.62537ZM66.8637 0.657263V13.2366H65.0229V2.04547H52.6653V13.2366H50.8245V0.657263H66.8637Z" fill="black"/>
<path d="M66.9645 13.3354H64.9172V2.14057H52.7661V13.3354H50.7188V0.562988H66.9645V13.3354ZM65.1221 13.1424H66.7548V0.756041H50.9237V13.1424H52.5564V1.94751H65.1182V13.1424H65.1221ZM82.6675 0.657304C85.9808 0.657304 87.4344 2.20615 87.4344 4.72467C87.4344 7.24246 85.9808 8.82446 82.6675 8.82446H73.1967V13.2367H71.3544V0.657304H82.6675ZM85.614 4.57657C85.614 2.93709 84.7015 1.98804 82.5152 1.98804H73.1967V7.49299H82.5152C84.7015 7.49299 85.614 6.54394 85.614 4.94204V4.57657Z" fill="black"/>
<path d="M73.2985 13.3354H71.252V0.562931H82.6649C85.8517 0.562931 87.5322 2.00125 87.5322 4.72462C87.5322 7.44872 85.847 8.92314 82.6649 8.92314H73.2985V13.3354ZM71.4569 13.1423H73.0888V8.73009H82.6649C85.7158 8.73009 87.3265 7.34556 87.3265 4.72462C87.3265 2.10367 85.7598 0.755984 82.6649 0.755984H71.4569V13.1423ZM82.5078 7.5924H73.0888V1.89367H82.5078C84.6336 1.89367 85.7119 2.79704 85.7119 4.58019V4.94567C85.7119 6.70451 84.6336 7.59535 82.5078 7.59535V7.5924ZM73.2945 7.39935H82.5078C84.5245 7.39935 85.5022 6.59398 85.5022 4.94272V4.57725C85.5022 2.90093 84.5206 2.08304 82.5078 2.08304H73.2945V7.39935ZM100.023 0.46051C106.609 0.46051 110.057 2.2643 110.057 6.98893C110.057 11.7128 106.609 13.4429 100.023 13.4429C93.437 13.4429 89.9887 11.5655 89.9887 6.98819C89.9887 2.41241 93.437 0.46051 100.023 0.46051ZM108.238 6.47535C108.238 3.21335 105.466 1.80819 100.023 1.80819C94.5804 1.80819 91.809 3.19346 91.809 6.47535V7.40377C91.809 10.6289 94.5584 12.0871 100.023 12.0871C105.488 12.0871 108.238 10.6451 108.238 7.40377V6.47535Z" fill="black"/>
<path d="M100.023 13.5373C93.11 13.5373 89.8887 11.4543 89.8887 6.98461C89.8887 2.51493 93.0134 0.36261 100.023 0.36261C107.033 0.36261 110.158 2.40366 110.158 6.98461C110.158 11.5656 106.937 13.5373 100.023 13.5373ZM100.023 0.555662C93.1579 0.555662 90.0936 2.53998 90.0936 6.98461C90.0936 11.43 93.2498 13.3399 100.023 13.3399C106.797 13.3399 109.953 11.3187 109.953 6.98461C109.953 2.6505 106.894 0.555662 100.023 0.555662ZM100.023 12.186C94.4278 12.186 91.709 10.6202 91.709 7.40387V6.47545C91.709 3.22598 94.3492 1.70956 100.023 1.70956C105.698 1.70956 108.338 3.22156 108.338 6.47545V7.40387C108.338 10.6202 105.619 12.186 100.023 12.186ZM100.023 1.90261C94.489 1.90261 91.914 3.35714 91.914 6.47103V7.39945C91.914 10.5303 94.489 11.9885 100.023 11.9885C105.558 11.9885 108.133 10.5296 108.133 7.39945V6.47103C108.133 3.35345 105.558 1.90261 100.023 1.90261ZM130.708 1.8444L124.065 11.3261H122.048L115.405 1.88198V13.2367H113.738V0.657347H116.431L123.114 10.1759L129.813 0.657347H132.523V13.2367H130.704V1.84514L130.708 1.8444Z" fill="black"/>
<path d="M132.628 13.3353H130.603V2.16995L124.117 11.4247H121.992L121.961 11.3805L115.506 2.2068V13.3353H113.633V0.563638H116.483L123.109 9.99964L129.761 0.563638H132.633V13.3353H132.628ZM130.808 13.1423H132.423V0.755954H129.87L123.113 10.3533L123.026 10.2295L116.374 0.756691H113.838V13.143H115.296V1.5569L122.096 11.2272H123.999L130.804 1.52006V13.1415H130.808V13.1423ZM151.518 0.455322V1.74995H138.192V5.70606H147.934C151.016 5.70606 152.408 7.0368 152.408 9.35343C152.408 11.6708 151.011 13.0347 147.934 13.0347H136.35V0.455322H151.518ZM150.571 9.11543C150.571 7.89522 149.719 6.98374 147.55 6.98374H138.197V11.7614H147.55C149.719 11.7614 150.571 10.8698 150.571 9.59216V9.11543Z" fill="black"/>
<path d="M147.935 13.1342H136.25V0.361755H151.622V1.84944H138.297V5.61249H147.939C150.977 5.61249 152.518 6.87323 152.518 9.35491C152.518 11.8359 150.933 13.1349 147.939 13.1349L147.935 13.1342ZM136.455 12.9411H147.935C150.837 12.9411 152.308 11.7334 152.308 9.35491C152.308 6.97639 150.837 5.80555 147.935 5.80555H138.088V1.65639H151.413V0.554808H136.451V12.9411H136.455ZM147.546 11.8609H138.088V6.88944H147.546C150.265 6.88944 150.671 8.28576 150.671 9.11986V9.59218C150.671 10.6274 150.13 11.8609 147.546 11.8609ZM138.293 11.6679H147.546C149.453 11.6679 150.466 10.9531 150.466 9.59733V9.12502C150.466 7.79355 149.457 7.08691 147.546 7.08691H138.293V11.6679ZM164.38 0.455334L172.691 13.0347H170.735L168.234 9.24291H158.064L155.568 13.0347H153.748L162.054 0.455334H164.38ZM167.362 7.92839L163.158 1.54733L158.938 7.92765H167.362V7.92839Z" fill="black"/>
<path d="M172.873 13.1342H170.673L168.172 9.34239H158.116L155.619 13.1342H153.555L161.996 0.361755H164.436L164.467 0.40744L172.873 13.1342ZM170.787 12.9411H172.502L164.323 0.554808H162.114L153.935 12.9411H155.515L158.011 9.14933H168.294L170.795 12.9411H170.787ZM167.543 8.03228H158.749L163.157 1.36828L167.543 8.03228ZM159.12 7.83923H167.173L163.153 1.73818L159.115 7.83923H159.12ZM177.163 0.455334V5.68912H189.83V0.455334H191.649V13.0347H189.83V7.07365H177.163V13.0347H175.321V0.455334H177.163Z" fill="black"/>
<path d="M191.754 13.1342H189.729V7.17313H177.268V13.1342H175.221V0.36176H177.268V5.5926H189.729V0.361023H191.754V13.1334V13.1342ZM189.934 12.9411H191.549V0.554812H189.934V5.7886H177.058V0.554812H175.426V12.9411H177.058V6.98008H189.934V12.9411ZM212.648 0.455339L203.739 6.49008L212.883 13.0347H210.173L202.133 7.27481H198.008V13.0347H196.167V0.455339H198.008V5.89102H202.076L210.107 0.455339H212.648Z" fill="black"/>
<path d="M213.187 13.1342H210.136L210.111 13.1135L202.101 7.37502H198.112V13.1342H196.064V0.361755H198.112V5.79302H202.044L210.08 0.362492H212.969L203.912 6.49523L213.187 13.1342ZM210.206 12.9411H212.576L203.567 6.49155L212.327 0.554808H210.14L202.101 5.98607H197.897V0.555545H196.265V12.9419H197.897V7.18123H202.162L202.188 7.20112L210.198 12.9411H210.206Z" fill="black"/>
<path d="M218.151 13.0723C218.893 13.0723 219.496 12.5057 219.496 11.8072C219.496 11.1086 218.893 10.542 218.151 10.542C217.409 10.542 216.807 11.1086 216.807 11.8072C216.807 12.5057 217.409 13.0723 218.151 13.0723Z" fill="black"/>
<path d="M221.082 1.7499V0.361694H238.109V1.74622H230.514V12.9411H228.672V1.74917H221.078L221.082 1.7499Z" fill="black"/>
<path d="M230.62 13.0391H228.572V1.84424H220.979V0.267395H238.21V1.84424H230.616V13.0391H230.62ZM228.778 12.846H230.41V1.65118H238.005V0.459711H221.183V1.65118H228.778V12.846ZM255.735 0.360974V1.67624H242.872V5.88655H252.828V7.18118H242.872V11.6302H255.831V12.9448H241.035V0.360974H255.735Z" fill="black"/>
<path d="M255.935 13.0391H240.93V0.266724H255.835V1.7743H242.972V5.78788H252.928V7.27557H242.972V11.5316H255.931V13.0391H255.935ZM241.139 12.8461H255.73V11.7283H242.771V7.0862H252.727V5.98536H242.771V1.57757H255.635V0.459776H241.139V12.8461ZM268.112 7.43546L260.848 12.9411H258.544L266.894 6.61388L258.741 0.361776H261.259L268.269 5.73925L275.357 0.361039H277.661L269.486 6.53946L277.853 12.9404H275.318L268.112 7.43546Z" fill="black"/>
</g>
<defs>
<clipPath id="clip0_6350_3025">
<rect width="278" height="14" fill="white"/>
</clipPath>
</defs>
</svg>
