<svg width="225" height="40" viewBox="0 0 225 40" fill="none" xmlns="http://www.w3.org/2000/svg">
<path d="M80.8334 16.38H94.5974C97.1822 16.38 99.4362 16.8378 101.343 17.7737C103.245 18.6753 104.727 19.9687 105.773 21.6545C106.822 23.3127 107.337 25.2476 107.337 27.44C107.337 29.6056 106.803 31.5407 105.723 33.2284M80.8334 16.38L105.723 33.2295C105.723 33.2292 105.723 33.2288 105.723 33.2284M80.8334 16.38L79.1441 6.33998H103.765H104.265V5.83998V1.99997V1.49997H103.765H73.5254H72.9341L73.0324 2.08309L75.8513 18.8052L73.0308 37.927L72.9463 38.5H73.5254H94.6454C97.1382 38.5 99.3437 38.0407 101.248 37.1056M80.8334 16.38L101.248 37.1056M105.723 33.2284C104.676 34.883 103.178 36.1739 101.248 37.1056M105.723 33.2284C105.723 33.2281 105.724 33.2277 105.724 33.2273L101.248 37.1056M6.37919 38V23.956H19.7992C22.3857 23.956 24.6552 23.4975 26.5926 22.5623L26.5926 22.5623L26.5988 22.5592C28.5278 21.5947 30.0393 20.2724 31.1163 18.5895L31.1187 18.5857C32.1974 16.8665 32.7312 14.9006 32.7312 12.704C32.7312 10.5084 32.1979 8.55727 31.1176 6.86844C30.0402 5.15203 28.5264 3.8273 26.5926 2.8937C24.6552 1.9584 22.3857 1.49997 19.7992 1.49997H1.36719H0.867188V1.99997V38V38.5H1.36719H5.87919H6.37919V38ZM19.7032 19.02H6.37919V6.43598H19.7032C22.0527 6.43598 23.8441 7.02229 25.1364 8.13839L25.1364 8.13841L25.1406 8.14199C26.4556 9.25241 27.1232 10.754 27.1232 12.704C27.1232 14.6539 26.4553 16.1745 25.1357 17.3181C23.8435 18.4339 22.0523 19.02 19.7032 19.02ZM34.4669 38.2181L38.6575 29.572H60.3485L64.5268 38.2175L64.6632 38.5H64.9769H69.8729H70.6762L70.3216 37.7792L52.6096 1.77924L52.4722 1.49997H52.1609H46.8329H46.5217L46.3843 1.77924L28.6723 37.7792L28.3177 38.5H29.1209H34.0169H34.3302L34.4669 38.2181ZM58.0094 24.732H41.0033L49.5186 7.16313L58.0094 24.732ZM78.9885 33.756L80.8908 21.028H94.3094C96.6213 21.028 98.4146 21.6274 99.742 22.7778L99.7419 22.7779L99.751 22.7855C101.097 23.8972 101.777 25.398 101.777 27.344C101.777 29.3286 101.108 30.8641 99.79 32.0061C98.4626 33.1565 96.6693 33.756 94.3574 33.756H78.9885ZM120.238 36.7164L120.24 36.7173C123.392 38.3266 127.008 39.124 131.075 39.124C135.141 39.124 138.742 38.3266 141.864 36.7163C144.981 35.1084 147.42 32.8705 149.166 30.0041L149.167 30.0019C150.915 27.099 151.783 23.7597 151.783 20C151.783 16.2092 150.916 12.8686 149.166 9.99585C147.42 7.12949 144.981 4.89152 141.864 3.2836C138.742 1.67332 135.141 0.875977 131.075 0.875977C127.008 0.875977 123.392 1.67337 120.24 3.28263L120.238 3.2836C117.12 4.89152 114.682 7.12949 112.936 9.99585C111.186 12.8686 110.319 16.2092 110.319 20C110.319 23.7597 111.186 27.099 112.934 30.0019L112.936 30.0041C114.682 32.8705 117.12 35.1084 120.238 36.7164ZM172.359 6.48397H187.315H187.815V5.98397V1.99997V1.49997H187.315H151.891H151.391V1.99997V5.98397V6.48397H151.891H166.847V38V38.5H167.347H171.859H172.359V38V6.48397ZM187.279 38.2181L191.47 29.572H213.161L217.339 38.2175L217.476 38.5H217.789H222.685H223.489L223.134 37.7792L205.422 1.77924L205.285 1.49997H204.973H199.645H199.334L199.197 1.77924L181.485 37.7792L181.13 38.5H181.933H186.829H187.143L187.279 38.2181ZM210.822 24.732H193.816L202.331 7.16312L210.822 24.732ZM139.102 32.3232C136.85 33.4642 134.179 34.044 131.075 34.044C127.97 34.044 125.299 33.4642 123.047 32.3232C120.792 31.1485 119.039 29.5165 117.776 27.4241C116.55 25.3374 115.927 22.8687 115.927 20C115.927 17.0981 116.55 14.6137 117.776 12.5278C119.038 10.4358 120.791 8.8205 123.045 7.67796C125.298 6.53616 127.969 5.95598 131.075 5.95598C134.181 5.95598 136.852 6.53616 139.105 7.67796C141.359 8.82043 143.094 10.4351 144.324 12.5255C145.551 14.6119 146.175 17.0971 146.175 20C146.175 22.8698 145.552 25.3393 144.324 27.4265C143.094 29.5173 141.358 31.1486 139.102 32.3232Z" stroke="#1919EF"/>
</svg>
