<svg width="240" height="240" viewBox="0 0 240 240" fill="none" xmlns="http://www.w3.org/2000/svg">
<g clip-path="url(#clip0_6350_2975)">
<path d="M82.5617 7.64562L74.45 10.8235L78.5688 21.3424L76.8353 22.0238L72.1465 10.0457L81.9909 6.19373L82.5617 7.64562Z" fill="#1919EF"/>
<path d="M97.1376 15.3868L94.2561 4.46047L87.1 6.34942L87.5149 7.91985C89.3968 15.0534 89.5081 17.4016 86.0339 18.3202L85.5964 18.4387L85.1968 16.9201L85.6337 16.8016C87.5003 16.3127 87.4929 14.7127 85.7668 8.15685L85.0117 5.28271L95.6559 2.47522L98.9376 14.9201L97.1376 15.3868Z" fill="#1919EF"/>
<path d="M112.953 13.0879L111.027 10.1249L103.175 11.0509L101.99 14.3843L99.9453 14.6288L105.056 1.07278L106.989 0.84314L115.049 12.8435L112.953 13.0879ZM106.197 2.78394L103.76 9.49526L110.079 8.74709L106.197 2.78394Z" fill="#1919EF"/>
<path d="M116.495 0L124.947 0.222229C126.747 0.266675 129.562 0.711133 129.488 3.67419C129.429 5.84463 127.799 6.16316 127.614 6.26686C128.881 6.70392 130.022 7.73356 129.97 9.62993C129.962 9.97807 129.925 10.7411 129.37 11.5263C128.236 13.156 126.14 13.1189 124.406 13.0745L116.154 12.8597L116.495 0ZM124.992 11.6003C125.939 11.6226 126.94 11.5633 127.599 10.7559C127.784 10.541 128.036 10.0966 128.051 9.45212C128.058 9.1781 128.073 8.68917 127.717 8.14844C127.125 7.23727 126.088 7.15578 125.102 7.13356L118.147 6.94837L118.028 11.4151L124.992 11.6003ZM124.91 5.65203C125.747 5.67425 126.643 5.68166 127.207 4.91126C127.34 4.73348 127.57 4.34088 127.584 3.75567C127.592 3.42974 127.54 2.65935 126.769 2.14821C126.14 1.73339 125.391 1.71116 124.687 1.69635L118.295 1.52598L118.191 5.48165L124.91 5.65203Z" fill="#1919EF"/>
<path d="M143.54 15.5181L144.607 9.52538L134.903 7.79197L133.836 13.7847L132.006 13.4588L134.265 0.791748L136.08 1.11769L135.162 6.28822L144.866 8.02158L145.784 2.85107L147.614 3.17701L145.354 15.844L143.54 15.5181Z" fill="#1919EF"/>
<path d="M154.682 19.157C150.164 17.6088 148.03 14.2902 149.394 10.327C150.897 5.94916 155.127 5.0158 158.972 6.33436C162.557 7.56405 165.742 10.853 164.165 15.4383C163.001 18.8533 159.475 20.8015 154.682 19.157ZM158.467 7.8159C155.519 6.80104 152.327 7.4011 151.142 10.853C150.105 13.8679 151.652 16.4384 155.238 17.6754C159.408 19.1051 161.661 17.0902 162.49 14.6754C163.245 12.4679 162.742 9.28261 158.467 7.8159Z" fill="#1919EF"/>
<path d="M163.992 22.3118L169.874 10.8671L180.43 16.2968L179.704 17.7043L170.77 13.1116L169.022 16.5191L177.726 20.9933L177.022 22.3563L168.318 17.8821L166.333 21.7415L175.689 26.549L174.963 27.9565L163.992 22.3118Z" fill="#1919EF"/>
<path d="M189.325 21.9712L195.955 27.2232C197.371 28.3418 199.356 30.3789 197.518 32.7123C196.171 34.4161 194.674 33.6901 194.466 33.6679C195.215 34.7716 195.511 36.2828 194.333 37.7718C194.118 38.0458 193.629 38.631 192.718 38.9347C190.829 39.557 189.178 38.268 187.822 37.1939L181.348 32.0678L189.325 21.9712ZM189.163 36.3568C189.903 36.9421 190.748 37.4977 191.755 37.2458C192.037 37.1865 192.503 36.9791 192.896 36.4754C193.067 36.2606 193.37 35.8754 193.415 35.2309C193.482 34.1494 192.704 33.4605 191.933 32.8456L186.474 28.527L183.703 32.0308L189.163 36.3568ZM192.666 31.5493C193.326 32.0678 194.037 32.6086 194.948 32.3345C195.163 32.2678 195.578 32.09 195.941 31.6382C196.141 31.3789 196.563 30.7345 196.252 29.8604C196 29.1492 195.415 28.6899 194.859 28.2455L189.844 24.275L187.392 27.3788L192.666 31.5493Z" fill="#1919EF"/>
<path d="M201.645 50.6168L206.098 46.4685L199.379 39.2609L194.927 43.4091L193.66 42.0461L203.068 33.2755L204.32 34.6237L200.483 38.2016L207.201 45.4092L211.038 41.8313L212.305 43.1943L202.897 51.965L201.645 50.6168Z" fill="#1919EF"/>
<path d="M211.861 56.6911L221.04 55.2837L222.188 56.9282L211.743 58.306C209.061 58.669 207.491 58.6541 206.025 56.5429C205.594 55.9282 205.365 55.4689 205.188 54.9948L206.439 54.1207C206.617 54.5059 206.936 55.18 207.277 55.6689C207.936 56.6097 208.795 57.0096 209.928 56.7504L214.276 45.5945L215.573 47.4464L211.861 56.6911Z" fill="#1919EF"/>
<path d="M224.92 65.2312L214.912 70.5424L214.061 68.9349L224.068 63.6237L221.609 58.9865L222.957 58.2679L228.742 69.1646L227.394 69.8831L224.92 65.2312Z" fill="#1919EF"/>
<path d="M229.98 71.936L232.854 79.4774C233.261 80.5508 233.869 82.4993 232.765 84.1142C232.328 84.7515 231.668 85.233 230.935 85.514C230.461 85.6991 229.083 86.122 227.75 85.2849C226.558 84.551 226.105 83.433 225.639 82.1883L223.439 76.4174L218.616 78.2547L217.957 76.514L229.98 71.936ZM226.98 81.4105C227.335 82.3435 227.758 83.3584 228.81 83.6993C229.106 83.8032 229.624 83.8991 230.343 83.6254C230.565 83.5435 231.12 83.3064 231.476 82.7064C232.069 81.6996 231.625 80.5435 231.254 79.5732L229.209 74.2098L224.869 75.862L226.98 81.4105Z" fill="#1919EF"/>
<path d="M235.506 87.1273L235.913 88.9427L226.602 91.039L236.861 98.9276L238.106 98.6466L238.514 100.461L225.965 103.291L225.557 101.476L235.017 99.3424L224.758 91.4539L223.372 91.7649L222.965 89.9495L235.506 87.1273Z" fill="#1919EF"/>
<path d="M236.558 141.337L237.698 132.7L226.498 131.225L226.742 129.38L239.498 131.062L238.113 141.544L236.558 141.337Z" fill="#1919EF"/>
<path d="M222.728 150.383L233.683 153.146L235.491 145.976L233.92 145.576C226.764 143.776 224.661 142.731 225.535 139.257L225.646 138.813L227.165 139.198L227.053 139.643C226.579 141.517 227.987 142.28 234.557 143.939L237.439 144.665L234.75 155.339L222.275 152.199L222.728 150.383Z" fill="#1919EF"/>
<path d="M217.113 165.331L220.639 165.072L223.609 157.745L221.261 155.101L222.032 153.189L231.446 164.205L230.713 166.013L216.312 167.294L217.113 165.331ZM229.402 164.375L224.699 159.005L222.306 164.901L229.402 164.375Z" fill="#1919EF"/>
<path d="M226.882 174.74L222.63 182.044C221.719 183.607 219.985 185.859 217.423 184.362C215.548 183.274 216.052 181.689 216.045 181.474C215.06 182.377 213.6 182.881 211.963 181.925C211.667 181.748 211.015 181.348 210.585 180.488C209.704 178.711 210.741 176.888 211.615 175.392L215.771 168.258L226.882 174.74ZM212.63 176.629C212.156 177.451 211.726 178.362 212.111 179.325C212.208 179.592 212.482 180.029 213.037 180.348C213.274 180.488 213.696 180.733 214.341 180.681C215.422 180.592 215.993 179.726 216.489 178.873L219.993 172.859L216.134 170.614L212.63 176.629ZM217.882 179.407C217.46 180.133 217.03 180.911 217.43 181.777C217.526 181.977 217.763 182.37 218.267 182.666C218.548 182.83 219.245 183.155 220.067 182.726C220.734 182.377 221.111 181.733 221.467 181.118L224.682 175.592L221.267 173.599L217.882 179.407Z" fill="#1919EF"/>
<path d="M200.282 190.992L205.024 194.808L211.209 187.126L206.468 183.311L207.631 181.867L217.654 189.934L216.498 191.371L212.409 188.082L206.224 195.763L210.313 199.052L209.15 200.497L199.127 192.43L200.282 190.992Z" fill="#1919EF"/>
<path d="M191.72 199.02C195.253 195.812 199.194 195.538 202.009 198.642C205.12 202.071 203.899 206.227 200.883 208.961C198.076 211.509 193.653 212.709 190.401 209.123C187.979 206.45 187.972 202.42 191.72 199.02ZM199.832 207.805C202.142 205.709 203.157 202.627 200.705 199.924C198.564 197.56 195.564 197.671 192.757 200.22C189.49 203.183 190.172 206.131 191.883 208.02C193.453 209.746 196.483 210.835 199.832 207.805Z" fill="#1919EF"/>
<path d="M184.489 205.644L191.66 216.326L181.808 222.934L180.927 221.615L189.267 216.022L187.134 212.844L179.008 218.296L178.156 217.022L186.282 211.57L183.867 207.97L175.134 213.83L174.252 212.511L184.489 205.644Z" fill="#1919EF"/>
<path d="M172.541 227.969L164.749 231.244C163.089 231.939 160.341 232.703 159.193 229.962C158.356 227.962 159.704 226.999 159.829 226.829C158.496 226.954 157.037 226.48 156.304 224.732C156.17 224.414 155.889 223.703 156.067 222.754C156.43 220.799 158.356 219.977 159.948 219.302L167.556 216.102L172.541 227.969ZM160.023 220.902C159.148 221.273 158.259 221.739 157.993 222.747C157.911 223.021 157.867 223.532 158.111 224.118C158.215 224.369 158.408 224.821 158.948 225.169C159.867 225.754 160.844 225.399 161.748 225.021L168.164 222.325L166.43 218.213L160.023 220.902ZM162.541 226.288C161.771 226.613 160.956 226.977 160.756 227.91C160.711 228.125 160.659 228.584 160.889 229.117C161.015 229.421 161.378 230.096 162.297 230.243C163.037 230.369 163.727 230.073 164.386 229.799L170.282 227.317L168.748 223.673L162.541 226.288Z" fill="#1919EF"/>
<path d="M141.51 224.985L143.006 230.881L152.562 228.451L151.066 222.555L152.866 222.096L156.036 234.563L154.251 235.015L152.962 229.926L143.406 232.356L144.695 237.438L142.895 237.896L139.732 225.429L141.51 224.985Z" fill="#1919EF"/>
<path d="M131.287 231.03L128.11 239.756L126.117 239.971L129.925 230.148C130.895 227.622 131.666 226.252 134.222 225.978C134.962 225.896 135.481 225.912 135.984 225.986L136.147 227.511C135.725 227.482 134.984 227.437 134.384 227.504C133.243 227.63 132.48 228.186 132.162 229.304L139.851 238.475L137.606 238.72L131.287 231.03Z" fill="#1919EF"/>
<path d="M117.502 238.363L117.665 227.029L119.488 227.059L119.324 238.392L124.569 238.467L124.547 240L112.213 239.822L112.236 238.289L117.502 238.363Z" fill="#1919EF"/>
<path d="M109.175 239.564L101.182 238.43C100.049 238.267 98.0418 237.86 97.1674 236.112C96.8264 235.416 96.716 234.608 96.8264 233.838C96.9011 233.334 97.1901 231.919 98.5679 231.156C99.7899 230.467 100.983 230.615 102.301 230.801L108.42 231.667L109.145 226.564L110.983 226.823L109.175 239.564ZM102.338 232.357C101.345 232.215 100.257 232.097 99.4489 232.853C99.2191 233.06 98.8862 233.475 98.775 234.23C98.7457 234.467 98.6784 235.06 99.034 235.668C99.6267 236.675 100.857 236.846 101.886 236.993L107.568 237.8L108.22 233.201L102.338 232.357Z" fill="#1919EF"/>
<path d="M93.2042 237.052L91.4196 236.534L94.0786 227.363L82.2191 232.534L81.8635 233.756L80.0781 233.238L83.6635 220.881L85.4489 221.4L82.7452 230.711L94.6047 225.541L94.9969 224.178L96.7823 224.696L93.2042 237.052Z" fill="#1919EF"/>
<path d="M45.1896 211.867L52.2195 217.015L58.9012 207.896L60.3975 208.992L52.7898 219.371L44.2637 213.119L45.1896 211.867Z" fill="#1919EF"/>
<path d="M43.9293 195.406L36.2402 203.681L41.6552 208.718L42.759 207.533C47.7813 202.125 49.7073 200.784 52.3296 203.221L52.663 203.532L51.5962 204.681L51.2629 204.37C49.848 203.051 48.4999 203.918 43.8849 208.881L41.8626 211.059L33.8105 203.562L42.5664 194.14L43.9293 195.406Z" fill="#1919EF"/>
<path d="M33.5288 183.279L32.0547 186.494L37.04 192.634L40.492 191.857L41.7883 193.457L27.6027 196.383L26.373 194.872L32.2029 181.649L33.5288 183.279ZM28.4398 194.494L35.4104 192.968L31.4028 188.035L28.4398 194.494Z" fill="#1919EF"/>
<path d="M20.5804 187.294L16.247 180.034C15.321 178.486 14.1876 175.871 16.7358 174.352C18.5952 173.241 19.7434 174.449 19.9285 174.545C19.6174 173.241 19.8841 171.73 21.5064 170.759C21.8027 170.581 22.4693 170.204 23.4323 170.249C25.4176 170.337 26.5065 172.122 27.3955 173.611L31.6252 180.701L20.5804 187.294ZM20.8471 177.152C20.4175 176.434 19.9433 175.679 18.9878 175.612C18.7656 175.597 18.3063 175.612 17.81 175.916C17.5285 176.085 16.9062 176.538 16.8914 177.463C16.8766 178.219 17.2544 178.856 17.6248 179.471L20.9063 184.96L24.299 182.93L20.8471 177.152ZM25.825 173.908C25.3361 173.093 24.7435 172.278 23.7138 172.152C23.4323 172.108 22.9212 172.137 22.373 172.463C22.136 172.604 21.7138 172.856 21.4471 173.441C20.9952 174.434 21.4842 175.352 21.9879 176.197L25.5584 182.175L29.3881 179.886L25.825 173.908Z" fill="#1919EF"/>
<path d="M19.1887 156.131L13.5589 158.442L17.3071 167.561L22.937 165.25L23.6407 166.968L11.744 171.858L11.0477 170.154L15.8997 168.161L12.1515 159.042L7.29943 161.035L6.5957 159.316L18.4924 154.428L19.1887 156.131Z" fill="#1919EF"/>
<path d="M16.27 144.789C17.3812 149.434 15.7293 153.012 11.655 153.99C7.15861 155.071 4.09926 151.998 3.15108 148.049C2.26957 144.367 3.33627 139.908 8.0475 138.782C11.5514 137.945 15.0848 139.871 16.27 144.789ZM4.67705 147.686C5.403 150.716 7.61792 153.086 11.1661 152.235C14.2699 151.493 15.6107 148.804 14.7218 145.123C13.6922 140.834 10.7809 140.019 8.29936 140.612C6.03265 141.16 3.61776 143.293 4.67705 147.686Z" fill="#1919EF"/>
<path d="M13.935 135.258L1.11984 136.406L0.0605469 124.598L1.63838 124.449L2.53469 134.45L6.34963 134.109L5.47553 124.361L7.0015 124.227L7.87563 133.976L12.1942 133.591L11.2535 123.116L12.8313 122.975L13.935 135.258Z" fill="#1919EF"/>
<path d="M0.105469 114.024L1.0018 105.617C1.19439 103.824 1.85367 101.054 4.80932 101.365C6.96495 101.595 7.15754 103.246 7.24643 103.439C7.77982 102.209 8.89831 101.157 10.7873 101.358C11.128 101.394 11.891 101.491 12.6318 102.105C14.1651 103.365 13.9652 105.454 13.78 107.172L12.9059 115.38L0.105469 114.024ZM6.40937 106.084C6.49826 105.254 6.57234 104.358 5.8538 103.736C5.68342 103.587 5.31304 103.328 4.72784 103.269C4.4019 103.231 3.63151 103.224 3.06112 103.95C2.59444 104.543 2.52036 105.283 2.43888 105.994L1.76478 112.358L5.69824 112.773L6.40937 106.084ZM12.3429 106.476C12.4466 105.536 12.4614 104.528 11.7133 103.809C11.5132 103.602 11.091 103.321 10.4539 103.254C10.1799 103.224 9.69097 103.172 9.12799 103.476C8.17238 103.995 8.00943 105.024 7.90575 106.002L7.17236 112.921L11.6095 113.395L12.3429 106.476Z" fill="#1919EF"/>
<path d="M17.7208 88.2988L11.8317 86.7578L9.34273 96.2986L15.2318 97.8395L14.7651 99.6395L2.32031 96.3878L2.78699 94.6098L7.86125 95.9356L10.3576 86.3949L5.28337 85.069L5.75004 83.269L18.1949 86.5208L17.7208 88.2988Z" fill="#1919EF"/>
<path d="M17.3651 76.4173L11.2538 69.432L12.0241 67.5801L18.7873 75.6469C20.5281 77.7139 21.3578 79.0471 20.3726 81.4178C20.0837 82.1064 19.8244 82.5513 19.5133 82.9581L18.0984 82.3734C18.3281 82.0178 18.7281 81.3878 18.9577 80.8325C19.3948 79.773 19.2762 78.832 18.454 78.0176L6.71289 80.3364L7.57961 78.2474L17.3651 76.4173Z" fill="#1919EF"/>
<path d="M17.5591 60.8175L27.4187 66.4029L26.5223 67.9882L16.6628 62.4027L14.0775 66.9659L12.7441 66.2102L18.8258 55.484L20.1592 56.2396L17.5591 60.8175Z" fill="#1919EF"/>
<path d="M20.5137 52.9136L25.3435 46.4467C26.0324 45.5282 27.3509 43.9652 29.3065 44.0393C30.0769 44.0689 30.8399 44.3652 31.4696 44.8319C31.877 45.1356 32.9807 46.069 32.9807 47.6468C33.003 49.0468 32.2992 50.0247 31.4992 51.0913L27.8028 56.0397L31.9363 59.1286L30.8251 60.6176L20.5137 52.9136ZM30.1214 50.3802C30.7214 49.5802 31.3437 48.6764 31.077 47.6097C31.0103 47.306 30.8029 46.8171 30.1955 46.3578C30.0029 46.2171 29.514 45.8689 28.8102 45.8912C27.6472 45.9282 26.8991 46.9208 26.2842 47.7579L22.8471 52.3581L26.5731 55.1359L30.1214 50.3802Z" fill="#1919EF"/>
<path d="M30.3887 40.1117L31.6998 38.8006L38.4556 45.549L39.6334 32.6596L38.7296 31.7559L40.0408 30.4374L49.1448 39.534L47.8337 40.8525L40.9741 34.0004L39.7964 46.8897L40.8038 47.8898L39.4926 49.2083L30.3887 40.1117Z" fill="#1919EF"/>
<path d="M234.15 118.086C236.122 118.086 237.721 116.488 237.721 114.516C237.721 112.544 236.122 110.945 234.15 110.945C232.178 110.945 230.58 112.544 230.58 114.516C230.58 116.488 232.178 118.086 234.15 118.086Z" fill="#1919EF"/>
<path d="M69.7307 223.984C71.7025 223.984 73.3011 222.385 73.3011 220.413C73.3011 218.441 71.7025 216.843 69.7307 216.843C67.7587 216.843 66.1602 218.441 66.1602 220.413C66.1602 222.385 67.7587 223.984 69.7307 223.984Z" fill="#1919EF"/>
<path d="M59.3811 27.8603C61.353 27.8603 62.9516 26.2617 62.9516 24.2899C62.9516 22.3179 61.353 20.7194 59.3811 20.7194C57.4091 20.7194 55.8105 22.3179 55.8105 24.2899C55.8105 26.2617 57.4091 27.8603 59.3811 27.8603Z" fill="#1919EF"/>
</g>
<defs>
<clipPath id="clip0_6350_2975">
<rect width="240" height="240" fill="white"/>
</clipPath>
</defs>
</svg>
