<svg width="40" height="40" viewBox="0 0 40 40" fill="none" xmlns="http://www.w3.org/2000/svg">
<circle cx="20" cy="20" r="20" fill="#E3E5EB"/>
<mask id="mask0_38_557" style="mask-type:luminance" maskUnits="userSpaceOnUse" x="12" y="14" width="15" height="12">
<path fill-rule="evenodd" clip-rule="evenodd" d="M12.5 14.1666H26.5V25.8333H12.5V14.1666Z" fill="white"/>
</mask>
<g mask="url(#mask0_38_557)">
<path fill-rule="evenodd" clip-rule="evenodd" d="M26.5 15.104C26.4265 15.4302 26.3499 15.7558 26.2799 16.0828C25.8275 18.1973 25.3766 20.3122 24.9249 22.4269C24.7304 23.3376 24.5373 24.2487 24.3383 25.1585C24.3124 25.2767 24.2663 25.3941 24.2094 25.5012C24.0573 25.7874 23.8068 25.8953 23.4984 25.7987C23.3578 25.7547 23.2162 25.6903 23.0974 25.6042C22.0912 24.875 21.0902 24.1387 20.0876 23.4047C20.0513 23.3781 20.0141 23.3527 19.9708 23.3222C19.9376 23.3506 19.9061 23.375 19.8774 23.4023C19.3598 23.8956 18.8421 24.3888 18.3254 24.883C18.1714 25.0302 17.9962 25.1188 17.766 25.1055C17.785 24.8208 17.8025 24.5452 17.8221 24.2698C17.8632 23.6932 17.9053 23.1166 17.9472 22.54C17.9538 22.4492 17.9774 22.3562 17.9655 22.2681C17.9205 21.9356 18.1074 21.7428 18.3357 21.5394C20.1917 19.8847 22.0388 18.22 23.8885 16.5582C23.9156 16.5339 23.9508 16.5133 23.9668 16.4829C23.9961 16.4272 24.0139 16.3653 24.0365 16.306C23.9741 16.2885 23.905 16.245 23.8505 16.2588C23.7383 16.2873 23.6258 16.3334 23.5274 16.3949C21.1164 17.9007 18.7072 19.4094 16.2982 20.9184C16.2306 20.9608 16.1725 20.9843 16.0856 20.9569C15.0636 20.6342 14.0393 20.3189 13.0174 19.9959C12.8937 19.9568 12.7707 19.8984 12.6649 19.824C12.4661 19.6842 12.4421 19.4795 12.62 19.3141C12.7503 19.193 12.9081 19.0856 13.0728 19.0202C13.9338 18.678 14.8007 18.3506 15.6659 18.0191C18.9529 16.7598 22.2399 15.5004 25.5278 14.2436C25.6324 14.2036 25.7464 14.1773 25.8579 14.1687C26.1537 14.1461 26.3731 14.3061 26.4635 14.5936C26.4742 14.6275 26.4878 14.6605 26.5 14.6939V15.104Z" fill="#1E222E"/>
</g>
</svg>
