<svg width="40" height="40" viewBox="0 0 40 40" fill="none" xmlns="http://www.w3.org/2000/svg">
<circle cx="20" cy="20" r="20" fill="#E3E5EB"/>
<g clip-path="url(#clip0_38_562)">
<path d="M20.0017 13H19.9983C16.1386 13 13 16.1395 13 20C13 21.5312 13.4935 22.9505 14.3326 24.1029L13.4603 26.7034L16.1509 25.8433C17.2578 26.5765 18.5781 27 20.0017 27C23.8614 27 27 23.8596 27 20C27 16.1404 23.8614 13 20.0017 13Z" fill="#1E222E"/>
<path d="M24.0749 22.8849C23.906 23.3618 23.2358 23.7573 22.7012 23.8728C22.3354 23.9507 21.8577 24.0128 20.2494 23.346C18.1923 22.4938 16.8675 20.4034 16.7643 20.2678C16.6654 20.1322 15.933 19.1609 15.933 18.1564C15.933 17.1519 16.4432 16.6628 16.6488 16.4528C16.8177 16.2804 17.0968 16.2017 17.3645 16.2017C17.4512 16.2017 17.529 16.206 17.599 16.2095C17.8047 16.2183 17.9079 16.2305 18.0435 16.5552C18.2124 16.962 18.6237 17.9665 18.6727 18.0698C18.7225 18.173 18.7724 18.313 18.7024 18.4487C18.6368 18.5887 18.579 18.6508 18.4758 18.7698C18.3725 18.8888 18.2745 18.9798 18.1713 19.1075C18.0768 19.2187 17.97 19.3377 18.089 19.5433C18.208 19.7445 18.6193 20.4157 19.2248 20.9547C20.0062 21.6503 20.6397 21.8725 20.8663 21.967C21.0352 22.037 21.2364 22.0204 21.3598 21.8892C21.5164 21.7203 21.7098 21.4403 21.9067 21.1647C22.0467 20.9669 22.2234 20.9424 22.4089 21.0124C22.5979 21.078 23.598 21.5724 23.8037 21.6748C24.0093 21.778 24.1449 21.827 24.1948 21.9137C24.2438 22.0003 24.2438 22.4072 24.0749 22.8849Z" fill="#E3E5EB"/>
</g>
<defs>
<clipPath id="clip0_38_562">
<rect width="14" height="14" fill="white" transform="translate(13 13)"/>
</clipPath>
</defs>
</svg>
