<svg width="20" height="20" viewBox="0 0 20 20" fill="none" xmlns="http://www.w3.org/2000/svg">
<path fill-rule="evenodd" clip-rule="evenodd" d="M6.83898 5.76802C6.34891 5.0681 5.85423 4.37142 5.35498 3.67802C5.31298 3.62002 5.23798 3.50502 5.15298 3.50002C5.11498 3.49802 4.92498 3.51002 4.59698 3.75802C3.63298 4.48802 3.24498 5.60202 3.66698 7.24202C4.06098 8.77202 5.31098 11.015 7.14798 12.852C8.98498 14.689 11.228 15.939 12.758 16.332C14.398 16.755 15.512 16.367 16.242 15.403C16.49 15.075 16.502 14.885 16.5 14.847C16.495 14.762 16.38 14.687 16.322 14.645C15.866 14.313 15.023 13.717 14.232 13.161C13.942 12.957 13.778 12.844 13.652 12.766C13.48 12.66 13.36 12.748 13.223 12.881C13.01 13.088 12.811 13.315 12.57 13.491C12.2672 13.7132 11.906 13.8418 11.531 13.861C10.975 13.889 10.479 13.659 10.063 13.308C8.82694 12.2977 7.69528 11.1661 6.68498 9.93002C6.33298 9.51202 6.10698 9.01002 6.13998 8.45202C6.16698 7.99702 6.34798 7.65202 6.51398 7.42502C6.68798 7.18602 6.91398 6.98902 7.11898 6.77802C7.24898 6.64402 7.34898 6.53602 7.23398 6.34802C7.10752 6.15152 6.97581 5.95745 6.83898 5.76802ZM6.56898 2.79502C6.90898 3.26302 7.51098 4.11602 8.06598 4.90502C8.45298 5.45702 8.64598 5.73202 8.72798 6.02302C8.84298 6.43302 8.81998 6.83902 8.62098 7.25602C8.49098 7.52802 8.35098 7.66802 7.87298 8.14602C7.75898 8.25902 7.64698 8.37002 7.63698 8.53902C7.62698 8.71302 7.72898 8.83702 7.83298 8.96302C8.78429 10.1279 9.84957 11.1949 11.013 12.148C11.139 12.251 11.285 12.372 11.456 12.363C11.628 12.355 11.74 12.241 11.855 12.126C12.333 11.648 12.472 11.509 12.744 11.379C13.1291 11.1977 13.5664 11.1598 13.977 11.272C14.267 11.353 14.543 11.547 15.094 11.934C15.884 12.489 16.737 13.091 17.204 13.432C18.231 14.178 18.215 15.282 17.438 16.308C16.258 17.866 14.462 18.32 12.384 17.785C10.548 17.314 8.07798 15.903 6.08698 13.913C4.09698 11.923 2.68698 9.45202 2.21398 7.61602C1.67998 5.53802 2.13398 3.74102 3.69198 2.56202C4.71798 1.78502 5.82298 1.76902 6.56898 2.79502Z" fill="#ADAFBA"/>
</svg>
