<svg width="24" height="24" viewBox="0 0 24 24" fill="none" xmlns="http://www.w3.org/2000/svg">
<path fill-rule="evenodd" clip-rule="evenodd" d="M3.69801 4.0921C3.59961 4.2841 3.59961 4.5361 3.59961 5.0401V9.6337C3.59961 10.1377 3.59961 10.3897 3.69801 10.5817C3.78432 10.7512 3.92211 10.889 4.09161 10.9753C4.28361 11.0737 4.53561 11.0737 5.03961 11.0737H9.63321C10.1372 11.0737 10.3892 11.0737 10.5812 10.9753C10.7507 10.889 10.8885 10.7512 10.9748 10.5817C11.0732 10.3897 11.0732 10.1377 11.0732 9.6337V5.0401C11.0732 4.5361 11.0732 4.2841 10.9748 4.0921C10.8885 3.9226 10.7507 3.78481 10.5812 3.6985C10.3892 3.6001 10.1372 3.6001 9.63321 3.6001H5.03961C4.53561 3.6001 4.28361 3.6001 4.09161 3.6985C3.92211 3.78481 3.78432 3.9226 3.69801 4.0921ZM5.39961 5.4001H9.27321V9.2737H5.39961V5.4001Z" fill="white"/>
<path fill-rule="evenodd" clip-rule="evenodd" d="M3.69801 13.4183C3.59961 13.6103 3.59961 13.8623 3.59961 14.3663V18.9599C3.59961 19.4639 3.59961 19.7159 3.69801 19.9079C3.78432 20.0774 3.92211 20.2152 4.09161 20.3015C4.28361 20.3999 4.53561 20.3999 5.03961 20.3999H9.63321C10.1372 20.3999 10.3892 20.3999 10.5812 20.3015C10.7507 20.2152 10.8885 20.0774 10.9748 19.9079C11.0732 19.7159 11.0732 19.4639 11.0732 18.9599V14.3663C11.0732 13.8623 11.0732 13.6103 10.9748 13.4183C10.8885 13.2488 10.7507 13.111 10.5812 13.0247C10.3892 12.9263 10.1372 12.9263 9.63321 12.9263H5.03961C4.53561 12.9263 4.28361 12.9263 4.09161 13.0247C3.92211 13.111 3.78432 13.2488 3.69801 13.4183ZM5.39961 14.7263H9.27321V18.5999H5.39961V14.7263Z" fill="white"/>
<path fill-rule="evenodd" clip-rule="evenodd" d="M12.9268 5.0401C12.9268 4.5361 12.9268 4.2841 13.0252 4.0921C13.1115 3.9226 13.2493 3.78481 13.4188 3.6985C13.6108 3.6001 13.8628 3.6001 14.3668 3.6001H18.9604C19.4644 3.6001 19.7164 3.6001 19.9084 3.6985C20.0779 3.78481 20.2156 3.9226 20.302 4.0921C20.4004 4.2841 20.4004 4.5361 20.4004 5.0401V9.6337C20.4004 10.1377 20.4004 10.3897 20.302 10.5817C20.2156 10.7512 20.0779 10.889 19.9084 10.9753C19.7164 11.0737 19.4644 11.0737 18.9604 11.0737H14.3668C13.8628 11.0737 13.6108 11.0737 13.4188 10.9753C13.2493 10.889 13.1115 10.7512 13.0252 10.5817C12.9268 10.3897 12.9268 10.1377 12.9268 9.6337V5.0401ZM14.7268 9.2737V5.4001H18.6004V9.2737H14.7268Z" fill="white"/>
<path d="M12.9238 12.9241H15.4162V15.4165H12.9238V12.9241Z" fill="white"/>
<path d="M17.9074 15.4165H15.4162V17.9077H12.9238V20.4001H15.4162V17.9077H17.9074V20.4001H20.3998V17.9077H17.9074V15.4165Z" fill="white"/>
<path d="M17.9072 15.4162V12.9238H20.3996V15.4162H17.9072Z" fill="white"/>
</svg>
